<svg xmlns="http://www.w3.org/2000/svg" width="1280.335" height="690.17" viewBox="0 0 1280.335 690.17"><defs><style>.a{opacity:0.1;}.an,.ap,.au,.b,.r,.x,.y{fill:#929292;}.b,.c,.d,.e,.i,.j{opacity:0.8;}.ak,.am,.av,.c,.n,.q,.z{fill:#d2d2d2;}.aa,.ah,.al,.aw,.d,.k,.p{fill:#bababa;}.ab,.ai,.as,.ax,.e,.l,.o{fill:#a6a6a6;}.ac,.ay,.f{fill:#006f53;}.f,.g,.h,.k,.l,.m,.n,.r,.u,.w{opacity:0.9;}.ad,.az,.g{fill:#55b74f;}.ae,.ba,.h{fill:#add591;}.af,.aj,.ao,.bb,.i,.m,.s{fill:#bebebe;}.ag,.bc,.j{fill:#d5e8c6;}.aq,.ar,.bd,.t,.u{fill:#d5d5d5;}.v{fill:#94cd9a;}.at,.be,.w{fill:#076d3a;}.aa,.ab,.af,.ag,.y,.z{opacity:0.5;}.ac,.ad,.ae,.ah,.aj,.ak,.ap,.ar,.as,.at{opacity:0.6;}.ai,.al,.am,.an,.ao,.aq{opacity:0.7;}.au,.av,.aw,.ax,.ay,.az,.ba,.bb,.bc,.bd,.be{opacity:0.4;}</style></defs><g transform="translate(0.335 -1710.073)"><g class="a" transform="translate(-0.335 1710.073)"><path class="b" d="M77.051,470.1h0A52.619,52.619,0,0,1,24.4,522.751,52.693,52.693,0,0,1,77.051,470.1" transform="translate(-15.837 -43.414)"/><path class="c" d="M122.651,522.851h0A52.619,52.619,0,0,1,70,470.2a52.545,52.545,0,0,1,52.651,52.651" transform="translate(-8.67 -43.399)"/><path class="d" d="M168.151,470.1h0A52.619,52.619,0,0,1,115.5,522.751h0A52.693,52.693,0,0,1,168.151,470.1" transform="translate(-1.52 -43.414)"/><path class="e" d="M213.751,522.851h0A52.619,52.619,0,0,1,161.1,470.2a52.545,52.545,0,0,1,52.651,52.651" transform="translate(5.646 -43.399)"/><path class="c" d="M259.251,470.1h0A52.619,52.619,0,0,1,206.6,522.751,52.619,52.619,0,0,1,259.251,470.1" transform="translate(12.797 -43.414)"/><path class="c" d="M304.751,522.851h0A52.62,52.62,0,0,1,252.1,470.2a52.545,52.545,0,0,1,52.651,52.651" transform="translate(19.947 -43.399)"/><path class="f" d="M79.494,516.847a8.447,8.447,0,1,1-8.447-8.447,8.495,8.495,0,0,1,8.447,8.447" transform="translate(-9.834 -37.395)"/><path class="g" d="M170.594,516.847a8.447,8.447,0,1,1-8.447-8.447,8.495,8.495,0,0,1,8.447,8.447" transform="translate(4.484 -37.395)"/><path class="h" d="M261.695,516.847a8.447,8.447,0,1,1-8.447-8.447,8.494,8.494,0,0,1,8.447,8.447" transform="translate(18.799 -37.395)"/><path class="i" d="M216.095,471.247a8.447,8.447,0,1,1-8.447-8.447,8.495,8.495,0,0,1,8.447,8.447" transform="translate(11.633 -44.561)"/><path class="i" d="M124.994,471.247a8.447,8.447,0,1,1-8.447-8.447,8.42,8.42,0,0,1,8.447,8.447" transform="translate(-2.683 -44.561)"/><path class="i" d="M33.894,471.247a8.447,8.447,0,1,1-8.447-8.447,8.495,8.495,0,0,1,8.447,8.447" transform="translate(-17 -44.561)"/><path class="j" d="M307.194,471.247a8.447,8.447,0,1,1-8.447-8.447,8.495,8.495,0,0,1,8.447,8.447" transform="translate(25.951 -44.561)"/><path class="c" d="M395.851,522.851h0A52.619,52.619,0,0,1,343.2,470.2a52.545,52.545,0,0,1,52.651,52.651" transform="translate(34.264 -43.399)"/><path class="d" d="M441.451,470.1h0A52.619,52.619,0,0,1,388.8,522.751,52.546,52.546,0,0,1,441.451,470.1" transform="translate(41.43 -43.414)"/><path class="c" d="M486.951,522.851h0A52.619,52.619,0,0,1,434.3,470.2a52.545,52.545,0,0,1,52.651,52.651" transform="translate(48.581 -43.399)"/><path class="d" d="M532.551,470.1h0A52.619,52.619,0,0,1,479.9,522.751,52.545,52.545,0,0,1,532.551,470.1Z" transform="translate(55.747 -43.414)"/><path class="i" d="M350.351,470.1h0A52.619,52.619,0,0,1,297.7,522.751,52.546,52.546,0,0,1,350.351,470.1" transform="translate(27.113 -43.414)"/><path class="e" d="M578.051,522.851h0A52.619,52.619,0,0,1,525.4,470.2a52.545,52.545,0,0,1,52.651,52.651" transform="translate(62.897 -43.399)"/><path class="h" d="M352.694,516.847a8.447,8.447,0,1,1-8.447-8.447,8.348,8.348,0,0,1,8.447,8.447" transform="translate(33.1 -37.395)"/><path class="f" d="M443.794,516.847a8.447,8.447,0,1,1-8.447-8.447,8.348,8.348,0,0,1,8.447,8.447" transform="translate(47.418 -37.395)"/><path class="g" d="M534.894,516.847a8.447,8.447,0,1,1-8.447-8.447,8.348,8.348,0,0,1,8.447,8.447" transform="translate(61.735 -37.395)"/><path class="i" d="M580.495,471.247a8.447,8.447,0,1,1-8.447-8.447,8.495,8.495,0,0,1,8.447,8.447" transform="translate(68.901 -44.561)"/><path class="i" d="M489.395,471.247a8.447,8.447,0,1,1-8.447-8.447,8.495,8.495,0,0,1,8.447,8.447" transform="translate(54.584 -44.561)"/><path class="i" d="M398.295,471.247a8.447,8.447,0,1,1-8.447-8.447,8.495,8.495,0,0,1,8.447,8.447" transform="translate(40.267 -44.561)"/><path class="i" d="M307.194,471.247a8.447,8.447,0,1,1-8.447-8.447,8.495,8.495,0,0,1,8.447,8.447" transform="translate(25.951 -44.561)"/><path class="k" d="M24.4,515.7h0a52.619,52.619,0,0,1,52.651,52.651A52.693,52.693,0,0,1,24.4,515.7" transform="translate(-15.837 -36.247)"/><path class="l" d="M122.651,613.851h0A52.619,52.619,0,0,1,70,561.2h0a52.693,52.693,0,0,1,52.651,52.651" transform="translate(-8.67 -29.097)"/><path class="l" d="M168.151,561.2h0A52.619,52.619,0,0,1,115.5,613.851h0A52.693,52.693,0,0,1,168.151,561.2" transform="translate(-1.52 -29.097)"/><path class="m" d="M115.5,515.7h0a52.619,52.619,0,0,1,52.651,52.651A52.693,52.693,0,0,1,115.5,515.7" transform="translate(-1.52 -36.247)"/><path class="n" d="M69.9,568.351h0A52.619,52.619,0,0,1,122.551,515.7,52.545,52.545,0,0,1,69.9,568.351" transform="translate(-8.687 -36.247)"/><path class="o" d="M77.051,652.3h0A52.619,52.619,0,0,1,24.4,704.95,52.693,52.693,0,0,1,77.051,652.3" transform="translate(-15.837 -14.78)"/><path class="p" d="M24.4,606.7h0a52.619,52.619,0,0,1,52.651,52.651A52.546,52.546,0,0,1,24.4,606.7" transform="translate(-15.837 -21.947)"/><path class="q" d="M122.651,704.95h0A52.619,52.619,0,0,1,70,652.3a52.693,52.693,0,0,1,52.651,52.65" transform="translate(-8.67 -14.78)"/><path class="o" d="M168.151,652.3h0A52.619,52.619,0,0,1,115.5,704.95h0a52.693,52.693,0,0,1,52.651-52.65" transform="translate(-1.52 -14.78)"/><path class="p" d="M69.9,659.45h0a52.619,52.619,0,0,1,52.651-52.65A52.545,52.545,0,0,1,69.9,659.45" transform="translate(-8.687 -21.931)"/><path class="k" d="M213.751,613.851h0A52.619,52.619,0,0,1,161.1,561.2h0a52.693,52.693,0,0,1,52.651,52.651" transform="translate(5.646 -29.097)"/><path class="n" d="M259.251,561.2h0A52.619,52.619,0,0,1,206.6,613.851,52.619,52.619,0,0,1,259.251,561.2" transform="translate(12.797 -29.097)"/><path class="k" d="M206.6,515.7h0a52.619,52.619,0,0,1,52.651,52.651A52.619,52.619,0,0,1,206.6,515.7" transform="translate(12.797 -36.247)"/><path class="m" d="M161,568.351h0A52.619,52.619,0,0,1,213.651,515.7,52.545,52.545,0,0,1,161,568.351" transform="translate(5.631 -36.247)"/><path class="r" d="M304.751,613.851h0A52.62,52.62,0,0,1,252.1,561.2h0a52.693,52.693,0,0,1,52.651,52.651" transform="translate(19.947 -29.097)"/><path class="p" d="M213.751,704.95h0A52.619,52.619,0,0,1,161.1,652.3a52.693,52.693,0,0,1,52.651,52.65" transform="translate(5.646 -14.78)"/><path class="o" d="M259.251,652.3h0A52.619,52.619,0,0,1,206.6,704.95a52.619,52.619,0,0,1,52.651-52.65" transform="translate(12.797 -14.78)"/><path class="o" d="M206.6,606.7h0a52.619,52.619,0,0,1,52.651,52.651A52.472,52.472,0,0,1,206.6,606.7" transform="translate(12.797 -21.947)"/><path class="s" d="M161,659.45h0a52.619,52.619,0,0,1,52.651-52.65A52.545,52.545,0,0,1,161,659.45" transform="translate(5.631 -21.931)"/><path class="q" d="M304.751,704.95h0A52.619,52.619,0,0,1,252.1,652.3a52.693,52.693,0,0,1,52.651,52.65" transform="translate(19.947 -14.78)"/><path class="s" d="M252.1,659.45h0a52.619,52.619,0,0,1,52.651-52.65A52.693,52.693,0,0,1,252.1,659.45" transform="translate(19.947 -21.931)"/><path class="n" d="M77.051,561.2h0A52.619,52.619,0,0,1,24.4,613.851,52.693,52.693,0,0,1,77.051,561.2" transform="translate(-15.837 -29.097)"/><path class="q" d="M115.5,606.7h0a52.619,52.619,0,0,1,52.651,52.651A52.546,52.546,0,0,1,115.5,606.7" transform="translate(-1.52 -21.947)"/><path class="m" d="M252.1,568.351h0A52.619,52.619,0,0,1,304.751,515.7,52.693,52.693,0,0,1,252.1,568.351" transform="translate(19.947 -36.247)"/><path class="r" d="M79.494,516.847a8.447,8.447,0,1,1-8.447-8.447,8.495,8.495,0,0,1,8.447,8.447" transform="translate(-9.834 -37.395)"/><path class="t" d="M79.494,607.847a8.447,8.447,0,1,1-8.447-8.447,8.495,8.495,0,0,1,8.447,8.447" transform="translate(-9.834 -23.093)"/><path class="r" d="M170.594,516.847a8.447,8.447,0,1,1-8.447-8.447,8.495,8.495,0,0,1,8.447,8.447" transform="translate(4.484 -37.395)"/><path class="t" d="M170.594,607.847a8.447,8.447,0,1,1-8.447-8.447,8.495,8.495,0,0,1,8.447,8.447" transform="translate(4.484 -23.093)"/><path class="u" d="M261.695,516.847a8.447,8.447,0,1,1-8.447-8.447,8.494,8.494,0,0,1,8.447,8.447" transform="translate(18.799 -37.395)"/><path class="t" d="M261.695,607.847a8.447,8.447,0,1,1-8.447-8.447,8.495,8.495,0,0,1,8.447,8.447" transform="translate(18.799 -23.093)"/><path class="t" d="M216.095,653.447A8.447,8.447,0,1,1,207.647,645a8.495,8.495,0,0,1,8.447,8.447" transform="translate(11.633 -15.927)"/><path class="o" d="M124.994,653.447A8.447,8.447,0,1,1,116.547,645a8.42,8.42,0,0,1,8.447,8.447" transform="translate(-2.683 -15.927)"/><path class="o" d="M33.894,653.447A8.447,8.447,0,1,1,25.447,645a8.495,8.495,0,0,1,8.447,8.447" transform="translate(-17 -15.927)"/><path class="l" d="M216.095,562.347a8.447,8.447,0,1,1-8.447-8.447,8.495,8.495,0,0,1,8.447,8.447" transform="translate(11.633 -30.245)"/><path class="v" d="M307.194,653.447A8.447,8.447,0,1,1,298.747,645a8.494,8.494,0,0,1,8.447,8.447" transform="translate(25.951 -15.927)"/><path class="w" d="M307.194,562.347a8.447,8.447,0,1,1-8.447-8.447,8.495,8.495,0,0,1,8.447,8.447" transform="translate(25.951 -30.245)"/><path class="u" d="M124.994,562.347a8.447,8.447,0,1,1-8.447-8.447,8.42,8.42,0,0,1,8.447,8.447" transform="translate(-2.683 -30.245)"/><path class="u" d="M33.894,562.347a8.447,8.447,0,1,1-8.447-8.447,8.495,8.495,0,0,1,8.447,8.447" transform="translate(-17 -30.245)"/><path class="n" d="M395.851,613.851h0A52.619,52.619,0,0,1,343.2,561.2h0a52.693,52.693,0,0,1,52.651,52.651" transform="translate(34.264 -29.097)"/><path class="n" d="M388.7,515.7h0a52.619,52.619,0,0,1,52.651,52.651A52.693,52.693,0,0,1,388.7,515.7" transform="translate(41.415 -36.247)"/><path class="l" d="M343.2,568.351h0A52.619,52.619,0,0,1,395.851,515.7,52.693,52.693,0,0,1,343.2,568.351" transform="translate(34.264 -36.247)"/><path class="l" d="M486.951,613.851h0A52.619,52.619,0,0,1,434.3,561.2h0a52.693,52.693,0,0,1,52.651,52.651" transform="translate(48.581 -29.097)"/><path class="m" d="M532.551,561.2h0A52.619,52.619,0,0,1,479.9,613.851,52.545,52.545,0,0,1,532.551,561.2Z" transform="translate(55.747 -29.097)"/><path class="n" d="M479.8,515.7h0a52.619,52.619,0,0,1,52.651,52.651h0A52.693,52.693,0,0,1,479.8,515.7" transform="translate(55.731 -36.247)"/><path class="l" d="M434.3,568.351h0A52.619,52.619,0,0,1,486.951,515.7,52.693,52.693,0,0,1,434.3,568.351" transform="translate(48.581 -36.247)"/><path class="o" d="M441.451,652.3h0A52.619,52.619,0,0,1,388.8,704.95a52.546,52.546,0,0,1,52.651-52.65" transform="translate(41.43 -14.78)"/><path class="s" d="M388.7,606.7h0a52.619,52.619,0,0,1,52.651,52.651A52.546,52.546,0,0,1,388.7,606.7" transform="translate(41.415 -21.947)"/><path class="q" d="M343.2,659.45h0a52.619,52.619,0,0,1,52.651-52.65A52.693,52.693,0,0,1,343.2,659.45" transform="translate(34.264 -21.931)"/><path class="q" d="M486.951,704.95h0A52.619,52.619,0,0,1,434.3,652.3a52.693,52.693,0,0,1,52.651,52.65" transform="translate(48.581 -14.78)"/><path class="o" d="M532.551,652.3h0A52.619,52.619,0,0,1,479.9,704.95a52.546,52.546,0,0,1,52.651-52.65Z" transform="translate(55.747 -14.78)"/><path class="m" d="M350.351,561.2h0A52.619,52.619,0,0,1,297.7,613.851,52.546,52.546,0,0,1,350.351,561.2" transform="translate(27.113 -29.097)"/><path class="n" d="M297.6,515.7h0a52.619,52.619,0,0,1,52.651,52.651A52.693,52.693,0,0,1,297.6,515.7" transform="translate(27.098 -36.247)"/><path class="p" d="M350.351,652.3h0A52.619,52.619,0,0,1,297.7,704.95a52.546,52.546,0,0,1,52.651-52.65" transform="translate(27.113 -14.78)"/><path class="o" d="M297.6,606.7h0a52.619,52.619,0,0,1,52.651,52.651A52.546,52.546,0,0,1,297.6,606.7" transform="translate(27.098 -21.947)"/><path class="q" d="M434.3,659.45h0a52.619,52.619,0,0,1,52.651-52.65A52.693,52.693,0,0,1,434.3,659.45" transform="translate(48.581 -21.931)"/><path class="k" d="M578.051,613.851h0A52.619,52.619,0,0,1,525.4,561.2h0a52.693,52.693,0,0,1,52.651,52.651" transform="translate(62.897 -29.097)"/><path class="n" d="M525.4,568.351h0A52.619,52.619,0,0,1,578.051,515.7,52.693,52.693,0,0,1,525.4,568.351" transform="translate(62.897 -36.247)"/><path class="p" d="M578.051,704.95h0A52.619,52.619,0,0,1,525.4,652.3a52.693,52.693,0,0,1,52.651,52.65" transform="translate(62.897 -14.78)"/><path class="s" d="M525.4,659.45h0a52.619,52.619,0,0,1,52.651-52.65A52.693,52.693,0,0,1,525.4,659.45" transform="translate(62.897 -21.931)"/><path class="n" d="M441.451,561.2h0A52.619,52.619,0,0,1,388.8,613.851,52.546,52.546,0,0,1,441.451,561.2" transform="translate(41.43 -29.097)"/><path class="q" d="M395.851,704.95h0A52.619,52.619,0,0,1,343.2,652.3a52.693,52.693,0,0,1,52.651,52.65" transform="translate(34.264 -14.78)"/><path class="q" d="M479.8,606.7h0a52.619,52.619,0,0,1,52.651,52.651h0A52.546,52.546,0,0,1,479.8,606.7" transform="translate(55.731 -21.947)"/><path class="u" d="M352.694,516.847a8.447,8.447,0,1,1-8.447-8.447,8.348,8.348,0,0,1,8.447,8.447" transform="translate(33.1 -37.395)"/><path class="t" d="M352.694,607.847a8.447,8.447,0,1,1-8.447-8.447,8.495,8.495,0,0,1,8.447,8.447" transform="translate(33.1 -23.093)"/><path class="r" d="M443.794,516.847a8.447,8.447,0,1,1-8.447-8.447,8.348,8.348,0,0,1,8.447,8.447" transform="translate(47.418 -37.395)"/><path class="o" d="M443.794,607.847a8.447,8.447,0,1,1-8.447-8.447,8.495,8.495,0,0,1,8.447,8.447" transform="translate(47.418 -23.093)"/><path class="r" d="M534.894,516.847a8.447,8.447,0,1,1-8.447-8.447,8.348,8.348,0,0,1,8.447,8.447" transform="translate(61.735 -37.395)"/><path class="x" d="M534.894,607.847a8.447,8.447,0,1,1-8.447-8.447,8.494,8.494,0,0,1,8.447,8.447" transform="translate(61.735 -23.093)"/><path class="o" d="M580.495,653.447A8.447,8.447,0,1,1,572.047,645a8.495,8.495,0,0,1,8.447,8.447" transform="translate(68.901 -15.927)"/><path class="t" d="M489.395,653.447A8.447,8.447,0,1,1,480.947,645a8.494,8.494,0,0,1,8.447,8.447" transform="translate(54.584 -15.927)"/><path class="o" d="M398.295,653.447A8.447,8.447,0,1,1,389.847,645a8.495,8.495,0,0,1,8.447,8.447" transform="translate(40.267 -15.927)"/><path class="u" d="M580.495,562.347a8.447,8.447,0,1,1-8.447-8.447,8.495,8.495,0,0,1,8.447,8.447" transform="translate(68.901 -30.245)"/><path class="t" d="M307.194,653.447A8.447,8.447,0,1,1,298.747,645a8.494,8.494,0,0,1,8.447,8.447" transform="translate(25.951 -15.927)"/><path class="r" d="M307.194,562.347a8.447,8.447,0,1,1-8.447-8.447,8.495,8.495,0,0,1,8.447,8.447" transform="translate(25.951 -30.245)"/><path class="u" d="M489.395,562.347a8.447,8.447,0,1,1-8.447-8.447,8.495,8.495,0,0,1,8.447,8.447" transform="translate(54.584 -30.245)"/><path class="u" d="M398.295,562.347a8.447,8.447,0,1,1-8.447-8.447,8.495,8.495,0,0,1,8.447,8.447" transform="translate(40.267 -30.245)"/><path class="y" d="M77.051,470.1h0A52.619,52.619,0,0,1,24.4,522.751,52.693,52.693,0,0,1,77.051,470.1" transform="translate(-15.837 -252.381)"/><path class="z" d="M122.651,522.851h0A52.619,52.619,0,0,1,70,470.2a52.545,52.545,0,0,1,52.651,52.651" transform="translate(-8.67 -252.365)"/><path class="aa" d="M168.151,470.1h0A52.619,52.619,0,0,1,115.5,522.751h0A52.693,52.693,0,0,1,168.151,470.1" transform="translate(-1.52 -252.381)"/><path class="ab" d="M213.751,522.851h0A52.619,52.619,0,0,1,161.1,470.2a52.545,52.545,0,0,1,52.651,52.651" transform="translate(5.646 -252.365)"/><path class="z" d="M259.251,470.1h0A52.619,52.619,0,0,1,206.6,522.751,52.619,52.619,0,0,1,259.251,470.1" transform="translate(12.797 -252.381)"/><path class="z" d="M304.751,522.851h0A52.62,52.62,0,0,1,252.1,470.2a52.545,52.545,0,0,1,52.651,52.651" transform="translate(19.947 -252.365)"/><path class="ac" d="M79.494,516.847a8.447,8.447,0,1,1-8.447-8.447,8.495,8.495,0,0,1,8.447,8.447" transform="translate(-9.834 -246.362)"/><path class="ad" d="M170.594,516.847a8.447,8.447,0,1,1-8.447-8.447,8.495,8.495,0,0,1,8.447,8.447" transform="translate(4.484 -246.362)"/><path class="ae" d="M261.695,516.847a8.447,8.447,0,1,1-8.447-8.447,8.494,8.494,0,0,1,8.447,8.447" transform="translate(18.799 -246.362)"/><path class="af" d="M216.095,471.247a8.447,8.447,0,1,1-8.447-8.447,8.495,8.495,0,0,1,8.447,8.447" transform="translate(11.633 -253.528)"/><path class="af" d="M124.994,471.247a8.447,8.447,0,1,1-8.447-8.447,8.42,8.42,0,0,1,8.447,8.447" transform="translate(-2.683 -253.528)"/><path class="af" d="M33.894,471.247a8.447,8.447,0,1,1-8.447-8.447,8.495,8.495,0,0,1,8.447,8.447" transform="translate(-17 -253.528)"/><path class="ag" d="M307.194,471.247a8.447,8.447,0,1,1-8.447-8.447,8.495,8.495,0,0,1,8.447,8.447" transform="translate(25.951 -253.528)"/><path class="z" d="M395.851,522.851h0A52.619,52.619,0,0,1,343.2,470.2a52.545,52.545,0,0,1,52.651,52.651" transform="translate(34.264 -252.365)"/><path class="aa" d="M441.451,470.1h0A52.619,52.619,0,0,1,388.8,522.751,52.546,52.546,0,0,1,441.451,470.1" transform="translate(41.43 -252.381)"/><path class="z" d="M486.951,522.851h0A52.619,52.619,0,0,1,434.3,470.2a52.545,52.545,0,0,1,52.651,52.651" transform="translate(48.581 -252.365)"/><path class="aa" d="M532.551,470.1h0A52.619,52.619,0,0,1,479.9,522.751,52.545,52.545,0,0,1,532.551,470.1Z" transform="translate(55.747 -252.381)"/><path class="af" d="M350.351,470.1h0A52.619,52.619,0,0,1,297.7,522.751,52.546,52.546,0,0,1,350.351,470.1" transform="translate(27.113 -252.381)"/><path class="ab" d="M578.051,522.851h0A52.619,52.619,0,0,1,525.4,470.2a52.545,52.545,0,0,1,52.651,52.651" transform="translate(62.897 -252.365)"/><path class="ae" d="M352.694,516.847a8.447,8.447,0,1,1-8.447-8.447,8.348,8.348,0,0,1,8.447,8.447" transform="translate(33.1 -246.362)"/><path class="ac" d="M443.794,516.847a8.447,8.447,0,1,1-8.447-8.447,8.348,8.348,0,0,1,8.447,8.447" transform="translate(47.418 -246.362)"/><path class="ad" d="M534.894,516.847a8.447,8.447,0,1,1-8.447-8.447,8.348,8.348,0,0,1,8.447,8.447" transform="translate(61.735 -246.362)"/><path class="af" d="M580.495,471.247a8.447,8.447,0,1,1-8.447-8.447,8.495,8.495,0,0,1,8.447,8.447" transform="translate(68.901 -253.528)"/><path class="af" d="M489.395,471.247a8.447,8.447,0,1,1-8.447-8.447,8.495,8.495,0,0,1,8.447,8.447" transform="translate(54.584 -253.528)"/><path class="af" d="M398.295,471.247a8.447,8.447,0,1,1-8.447-8.447,8.495,8.495,0,0,1,8.447,8.447" transform="translate(40.267 -253.528)"/><path class="af" d="M307.194,471.247a8.447,8.447,0,1,1-8.447-8.447,8.495,8.495,0,0,1,8.447,8.447" transform="translate(25.951 -253.528)"/><path class="ah" d="M24.4,515.7h0a52.619,52.619,0,0,1,52.651,52.651A52.693,52.693,0,0,1,24.4,515.7" transform="translate(-15.837 -245.214)"/><path class="ai" d="M122.651,613.851h0A52.619,52.619,0,0,1,70,561.2h0a52.693,52.693,0,0,1,52.651,52.651" transform="translate(-8.67 -238.064)"/><path class="ai" d="M168.151,561.2h0A52.619,52.619,0,0,1,115.5,613.851h0A52.693,52.693,0,0,1,168.151,561.2" transform="translate(-1.52 -238.064)"/><path class="aj" d="M115.5,515.7h0a52.619,52.619,0,0,1,52.651,52.651A52.693,52.693,0,0,1,115.5,515.7" transform="translate(-1.52 -245.214)"/><path class="ak" d="M69.9,568.351h0A52.619,52.619,0,0,1,122.551,515.7,52.545,52.545,0,0,1,69.9,568.351" transform="translate(-8.687 -245.214)"/><path class="al" d="M24.4,606.7h0a52.619,52.619,0,0,1,52.651,52.651A52.546,52.546,0,0,1,24.4,606.7" transform="translate(-15.837 -230.914)"/><path class="al" d="M69.9,659.45h0a52.619,52.619,0,0,1,52.651-52.65A52.545,52.545,0,0,1,69.9,659.45" transform="translate(-8.687 -230.898)"/><path class="al" d="M213.751,613.851h0A52.619,52.619,0,0,1,161.1,561.2h0a52.693,52.693,0,0,1,52.651,52.651" transform="translate(5.646 -238.064)"/><path class="am" d="M259.251,561.2h0A52.619,52.619,0,0,1,206.6,613.851,52.619,52.619,0,0,1,259.251,561.2" transform="translate(12.797 -238.064)"/><path class="ah" d="M206.6,515.7h0a52.619,52.619,0,0,1,52.651,52.651A52.619,52.619,0,0,1,206.6,515.7" transform="translate(12.797 -245.214)"/><path class="aj" d="M161,568.351h0A52.619,52.619,0,0,1,213.651,515.7,52.545,52.545,0,0,1,161,568.351" transform="translate(5.631 -245.214)"/><path class="an" d="M304.751,613.851h0A52.62,52.62,0,0,1,252.1,561.2h0a52.693,52.693,0,0,1,52.651,52.651" transform="translate(19.947 -238.064)"/><path class="ai" d="M206.6,606.7h0a52.619,52.619,0,0,1,52.651,52.651A52.472,52.472,0,0,1,206.6,606.7" transform="translate(12.797 -230.914)"/><path class="ao" d="M161,659.45h0a52.619,52.619,0,0,1,52.651-52.65A52.545,52.545,0,0,1,161,659.45" transform="translate(5.631 -230.898)"/><path class="ao" d="M252.1,659.45h0a52.619,52.619,0,0,1,52.651-52.65A52.693,52.693,0,0,1,252.1,659.45" transform="translate(19.947 -230.898)"/><path class="am" d="M77.051,561.2h0A52.619,52.619,0,0,1,24.4,613.851,52.693,52.693,0,0,1,77.051,561.2" transform="translate(-15.837 -238.064)"/><path class="am" d="M115.5,606.7h0a52.619,52.619,0,0,1,52.651,52.651A52.546,52.546,0,0,1,115.5,606.7" transform="translate(-1.52 -230.914)"/><path class="aj" d="M252.1,568.351h0A52.619,52.619,0,0,1,304.751,515.7,52.693,52.693,0,0,1,252.1,568.351" transform="translate(19.947 -245.214)"/><path class="ap" d="M79.494,516.847a8.447,8.447,0,1,1-8.447-8.447,8.495,8.495,0,0,1,8.447,8.447" transform="translate(-9.834 -246.362)"/><path class="aq" d="M79.494,607.847a8.447,8.447,0,1,1-8.447-8.447,8.495,8.495,0,0,1,8.447,8.447" transform="translate(-9.834 -232.06)"/><path class="ap" d="M170.594,516.847a8.447,8.447,0,1,1-8.447-8.447,8.495,8.495,0,0,1,8.447,8.447" transform="translate(4.484 -246.362)"/><path class="aq" d="M170.594,607.847a8.447,8.447,0,1,1-8.447-8.447,8.495,8.495,0,0,1,8.447,8.447" transform="translate(4.484 -232.06)"/><path class="ar" d="M261.695,516.847a8.447,8.447,0,1,1-8.447-8.447,8.494,8.494,0,0,1,8.447,8.447" transform="translate(18.799 -246.362)"/><path class="aq" d="M261.695,607.847a8.447,8.447,0,1,1-8.447-8.447,8.495,8.495,0,0,1,8.447,8.447" transform="translate(18.799 -232.06)"/><path class="as" d="M216.095,562.347a8.447,8.447,0,1,1-8.447-8.447,8.495,8.495,0,0,1,8.447,8.447" transform="translate(11.633 -239.212)"/><path class="at" d="M307.194,562.347a8.447,8.447,0,1,1-8.447-8.447,8.495,8.495,0,0,1,8.447,8.447" transform="translate(25.951 -239.212)"/><path class="ar" d="M124.994,562.347a8.447,8.447,0,1,1-8.447-8.447,8.42,8.42,0,0,1,8.447,8.447" transform="translate(-2.683 -239.212)"/><path class="ar" d="M33.894,562.347a8.447,8.447,0,1,1-8.447-8.447,8.495,8.495,0,0,1,8.447,8.447" transform="translate(-17 -239.212)"/><path class="am" d="M395.851,613.851h0A52.619,52.619,0,0,1,343.2,561.2h0a52.693,52.693,0,0,1,52.651,52.651" transform="translate(34.264 -238.064)"/><path class="ak" d="M388.7,515.7h0a52.619,52.619,0,0,1,52.651,52.651A52.693,52.693,0,0,1,388.7,515.7" transform="translate(41.415 -245.214)"/><path class="as" d="M343.2,568.351h0A52.619,52.619,0,0,1,395.851,515.7,52.693,52.693,0,0,1,343.2,568.351" transform="translate(34.264 -245.214)"/><path class="ai" d="M486.951,613.851h0A52.619,52.619,0,0,1,434.3,561.2h0a52.693,52.693,0,0,1,52.651,52.651" transform="translate(48.581 -238.064)"/><path class="ao" d="M532.551,561.2h0A52.619,52.619,0,0,1,479.9,613.851,52.545,52.545,0,0,1,532.551,561.2Z" transform="translate(55.747 -238.064)"/><path class="ak" d="M479.8,515.7h0a52.619,52.619,0,0,1,52.651,52.651h0A52.693,52.693,0,0,1,479.8,515.7" transform="translate(55.731 -245.214)"/><path class="as" d="M434.3,568.351h0A52.619,52.619,0,0,1,486.951,515.7,52.693,52.693,0,0,1,434.3,568.351" transform="translate(48.581 -245.214)"/><path class="ao" d="M388.7,606.7h0a52.619,52.619,0,0,1,52.651,52.651A52.546,52.546,0,0,1,388.7,606.7" transform="translate(41.415 -230.914)"/><path class="am" d="M343.2,659.45h0a52.619,52.619,0,0,1,52.651-52.65A52.693,52.693,0,0,1,343.2,659.45" transform="translate(34.264 -230.898)"/><path class="ao" d="M350.351,561.2h0A52.619,52.619,0,0,1,297.7,613.851,52.546,52.546,0,0,1,350.351,561.2" transform="translate(27.113 -238.064)"/><path class="ak" d="M297.6,515.7h0a52.619,52.619,0,0,1,52.651,52.651A52.693,52.693,0,0,1,297.6,515.7" transform="translate(27.098 -245.214)"/><path class="ai" d="M297.6,606.7h0a52.619,52.619,0,0,1,52.651,52.651A52.546,52.546,0,0,1,297.6,606.7" transform="translate(27.098 -230.914)"/><path class="am" d="M434.3,659.45h0a52.619,52.619,0,0,1,52.651-52.65A52.693,52.693,0,0,1,434.3,659.45" transform="translate(48.581 -230.898)"/><path class="al" d="M578.051,613.851h0A52.619,52.619,0,0,1,525.4,561.2h0a52.693,52.693,0,0,1,52.651,52.651" transform="translate(62.897 -238.064)"/><path class="ak" d="M525.4,568.351h0A52.619,52.619,0,0,1,578.051,515.7,52.693,52.693,0,0,1,525.4,568.351" transform="translate(62.897 -245.214)"/><path class="ao" d="M525.4,659.45h0a52.619,52.619,0,0,1,52.651-52.65A52.693,52.693,0,0,1,525.4,659.45" transform="translate(62.897 -230.898)"/><path class="am" d="M441.451,561.2h0A52.619,52.619,0,0,1,388.8,613.851,52.546,52.546,0,0,1,441.451,561.2" transform="translate(41.43 -238.064)"/><path class="am" d="M479.8,606.7h0a52.619,52.619,0,0,1,52.651,52.651h0A52.546,52.546,0,0,1,479.8,606.7" transform="translate(55.731 -230.914)"/><path class="ar" d="M352.694,516.847a8.447,8.447,0,1,1-8.447-8.447,8.348,8.348,0,0,1,8.447,8.447" transform="translate(33.1 -246.362)"/><path class="aq" d="M352.694,607.847a8.447,8.447,0,1,1-8.447-8.447,8.495,8.495,0,0,1,8.447,8.447" transform="translate(33.1 -232.06)"/><path class="ap" d="M443.794,516.847a8.447,8.447,0,1,1-8.447-8.447,8.348,8.348,0,0,1,8.447,8.447" transform="translate(47.418 -246.362)"/><path class="ai" d="M443.794,607.847a8.447,8.447,0,1,1-8.447-8.447,8.495,8.495,0,0,1,8.447,8.447" transform="translate(47.418 -232.06)"/><path class="ap" d="M534.894,516.847a8.447,8.447,0,1,1-8.447-8.447,8.348,8.348,0,0,1,8.447,8.447" transform="translate(61.735 -246.362)"/><path class="an" d="M534.894,607.847a8.447,8.447,0,1,1-8.447-8.447,8.494,8.494,0,0,1,8.447,8.447" transform="translate(61.735 -232.06)"/><path class="ar" d="M580.495,562.347a8.447,8.447,0,1,1-8.447-8.447,8.495,8.495,0,0,1,8.447,8.447" transform="translate(68.901 -239.212)"/><path class="ap" d="M307.194,562.347a8.447,8.447,0,1,1-8.447-8.447,8.495,8.495,0,0,1,8.447,8.447" transform="translate(25.951 -239.212)"/><path class="ar" d="M489.395,562.347a8.447,8.447,0,1,1-8.447-8.447,8.495,8.495,0,0,1,8.447,8.447" transform="translate(54.584 -239.212)"/><path class="ar" d="M398.295,562.347a8.447,8.447,0,1,1-8.447-8.447,8.495,8.495,0,0,1,8.447,8.447" transform="translate(40.267 -239.212)"/><path class="au" d="M77.051,470.1h0A52.619,52.619,0,0,1,24.4,522.751,52.693,52.693,0,0,1,77.051,470.1" transform="translate(-15.837 -461.653)"/><path class="av" d="M122.651,522.851h0A52.619,52.619,0,0,1,70,470.2a52.545,52.545,0,0,1,52.651,52.651" transform="translate(-8.67 -461.637)"/><path class="aw" d="M168.151,470.1h0A52.619,52.619,0,0,1,115.5,522.751h0A52.693,52.693,0,0,1,168.151,470.1" transform="translate(-1.52 -461.653)"/><path class="ax" d="M213.751,522.851h0A52.619,52.619,0,0,1,161.1,470.2a52.545,52.545,0,0,1,52.651,52.651" transform="translate(5.646 -461.637)"/><path class="av" d="M259.251,470.1h0A52.619,52.619,0,0,1,206.6,522.751,52.619,52.619,0,0,1,259.251,470.1" transform="translate(12.797 -461.653)"/><path class="av" d="M304.751,522.851h0A52.62,52.62,0,0,1,252.1,470.2a52.545,52.545,0,0,1,52.651,52.651" transform="translate(19.947 -461.637)"/><path class="ay" d="M79.494,516.847a8.447,8.447,0,1,1-8.447-8.447,8.495,8.495,0,0,1,8.447,8.447" transform="translate(-9.834 -455.634)"/><path class="az" d="M170.594,516.847a8.447,8.447,0,1,1-8.447-8.447,8.495,8.495,0,0,1,8.447,8.447" transform="translate(4.484 -455.634)"/><path class="ba" d="M261.695,516.847a8.447,8.447,0,1,1-8.447-8.447,8.494,8.494,0,0,1,8.447,8.447" transform="translate(18.799 -455.634)"/><path class="bb" d="M216.095,471.247a8.447,8.447,0,1,1-8.447-8.447,8.495,8.495,0,0,1,8.447,8.447" transform="translate(11.633 -462.8)"/><path class="bb" d="M124.994,471.247a8.447,8.447,0,1,1-8.447-8.447,8.42,8.42,0,0,1,8.447,8.447" transform="translate(-2.683 -462.8)"/><path class="bb" d="M33.894,471.247a8.447,8.447,0,1,1-8.447-8.447,8.495,8.495,0,0,1,8.447,8.447" transform="translate(-17 -462.8)"/><path class="bc" d="M307.194,471.247a8.447,8.447,0,1,1-8.447-8.447,8.495,8.495,0,0,1,8.447,8.447" transform="translate(25.951 -462.8)"/><path class="av" d="M395.851,522.851h0A52.619,52.619,0,0,1,343.2,470.2a52.545,52.545,0,0,1,52.651,52.651" transform="translate(34.264 -461.637)"/><path class="aw" d="M441.451,470.1h0A52.619,52.619,0,0,1,388.8,522.751,52.546,52.546,0,0,1,441.451,470.1" transform="translate(41.43 -461.653)"/><path class="av" d="M486.951,522.851h0A52.619,52.619,0,0,1,434.3,470.2a52.545,52.545,0,0,1,52.651,52.651" transform="translate(48.581 -461.637)"/><path class="aw" d="M532.551,470.1h0A52.619,52.619,0,0,1,479.9,522.751,52.545,52.545,0,0,1,532.551,470.1Z" transform="translate(55.747 -461.653)"/><path class="bb" d="M350.351,470.1h0A52.619,52.619,0,0,1,297.7,522.751,52.546,52.546,0,0,1,350.351,470.1" transform="translate(27.113 -461.653)"/><path class="ax" d="M578.051,522.851h0A52.619,52.619,0,0,1,525.4,470.2a52.545,52.545,0,0,1,52.651,52.651" transform="translate(62.897 -461.637)"/><path class="ba" d="M352.694,516.847a8.447,8.447,0,1,1-8.447-8.447,8.348,8.348,0,0,1,8.447,8.447" transform="translate(33.1 -455.634)"/><path class="ay" d="M443.794,516.847a8.447,8.447,0,1,1-8.447-8.447,8.348,8.348,0,0,1,8.447,8.447" transform="translate(47.418 -455.634)"/><path class="az" d="M534.894,516.847a8.447,8.447,0,1,1-8.447-8.447,8.348,8.348,0,0,1,8.447,8.447" transform="translate(61.735 -455.634)"/><path class="bb" d="M580.495,471.247a8.447,8.447,0,1,1-8.447-8.447,8.495,8.495,0,0,1,8.447,8.447" transform="translate(68.901 -462.8)"/><path class="bb" d="M489.395,471.247a8.447,8.447,0,1,1-8.447-8.447,8.495,8.495,0,0,1,8.447,8.447" transform="translate(54.584 -462.8)"/><path class="bb" d="M398.295,471.247a8.447,8.447,0,1,1-8.447-8.447,8.495,8.495,0,0,1,8.447,8.447" transform="translate(40.267 -462.8)"/><path class="bb" d="M307.194,471.247a8.447,8.447,0,1,1-8.447-8.447,8.495,8.495,0,0,1,8.447,8.447" transform="translate(25.951 -462.8)"/><path class="aw" d="M24.4,515.7h0a52.619,52.619,0,0,1,52.651,52.651A52.693,52.693,0,0,1,24.4,515.7" transform="translate(-15.837 -454.486)"/><path class="ax" d="M122.651,613.851h0A52.619,52.619,0,0,1,70,561.2h0a52.693,52.693,0,0,1,52.651,52.651" transform="translate(-8.67 -447.336)"/><path class="ax" d="M168.151,561.2h0A52.619,52.619,0,0,1,115.5,613.851h0A52.693,52.693,0,0,1,168.151,561.2" transform="translate(-1.52 -447.336)"/><path class="bb" d="M115.5,515.7h0a52.619,52.619,0,0,1,52.651,52.651A52.693,52.693,0,0,1,115.5,515.7" transform="translate(-1.52 -454.486)"/><path class="av" d="M69.9,568.351h0A52.619,52.619,0,0,1,122.551,515.7,52.545,52.545,0,0,1,69.9,568.351" transform="translate(-8.687 -454.486)"/><path class="aw" d="M24.4,606.7h0a52.619,52.619,0,0,1,52.651,52.651A52.546,52.546,0,0,1,24.4,606.7" transform="translate(-15.837 -440.186)"/><path class="aw" d="M69.9,659.45h0a52.619,52.619,0,0,1,52.651-52.65A52.545,52.545,0,0,1,69.9,659.45" transform="translate(-8.687 -440.17)"/><path class="aw" d="M213.751,613.851h0A52.619,52.619,0,0,1,161.1,561.2h0a52.693,52.693,0,0,1,52.651,52.651" transform="translate(5.646 -447.336)"/><path class="av" d="M259.251,561.2h0A52.619,52.619,0,0,1,206.6,613.851,52.619,52.619,0,0,1,259.251,561.2" transform="translate(12.797 -447.336)"/><path class="aw" d="M206.6,515.7h0a52.619,52.619,0,0,1,52.651,52.651A52.619,52.619,0,0,1,206.6,515.7" transform="translate(12.797 -454.486)"/><path class="bb" d="M161,568.351h0A52.619,52.619,0,0,1,213.651,515.7,52.545,52.545,0,0,1,161,568.351" transform="translate(5.631 -454.486)"/><path class="au" d="M304.751,613.851h0A52.62,52.62,0,0,1,252.1,561.2h0a52.693,52.693,0,0,1,52.651,52.651" transform="translate(19.947 -447.336)"/><path class="ax" d="M206.6,606.7h0a52.619,52.619,0,0,1,52.651,52.651A52.472,52.472,0,0,1,206.6,606.7" transform="translate(12.797 -440.186)"/><path class="bb" d="M161,659.45h0a52.619,52.619,0,0,1,52.651-52.65A52.545,52.545,0,0,1,161,659.45" transform="translate(5.631 -440.17)"/><path class="bb" d="M252.1,659.45h0a52.619,52.619,0,0,1,52.651-52.65A52.693,52.693,0,0,1,252.1,659.45" transform="translate(19.947 -440.17)"/><path class="av" d="M77.051,561.2h0A52.619,52.619,0,0,1,24.4,613.851,52.693,52.693,0,0,1,77.051,561.2" transform="translate(-15.837 -447.336)"/><path class="av" d="M115.5,606.7h0a52.619,52.619,0,0,1,52.651,52.651A52.546,52.546,0,0,1,115.5,606.7" transform="translate(-1.52 -440.186)"/><path class="bb" d="M252.1,568.351h0A52.619,52.619,0,0,1,304.751,515.7,52.693,52.693,0,0,1,252.1,568.351" transform="translate(19.947 -454.486)"/><path class="au" d="M79.494,516.847a8.447,8.447,0,1,1-8.447-8.447,8.495,8.495,0,0,1,8.447,8.447" transform="translate(-9.834 -455.634)"/><path class="bd" d="M79.494,607.847a8.447,8.447,0,1,1-8.447-8.447,8.495,8.495,0,0,1,8.447,8.447" transform="translate(-9.834 -441.332)"/><path class="au" d="M170.594,516.847a8.447,8.447,0,1,1-8.447-8.447,8.495,8.495,0,0,1,8.447,8.447" transform="translate(4.484 -455.634)"/><path class="bd" d="M170.594,607.847a8.447,8.447,0,1,1-8.447-8.447,8.495,8.495,0,0,1,8.447,8.447" transform="translate(4.484 -441.332)"/><path class="bd" d="M261.695,516.847a8.447,8.447,0,1,1-8.447-8.447,8.494,8.494,0,0,1,8.447,8.447" transform="translate(18.799 -455.634)"/><path class="bd" d="M261.695,607.847a8.447,8.447,0,1,1-8.447-8.447,8.495,8.495,0,0,1,8.447,8.447" transform="translate(18.799 -441.332)"/><path class="ax" d="M216.095,562.347a8.447,8.447,0,1,1-8.447-8.447,8.495,8.495,0,0,1,8.447,8.447" transform="translate(11.633 -448.483)"/><path class="be" d="M307.194,562.347a8.447,8.447,0,1,1-8.447-8.447,8.495,8.495,0,0,1,8.447,8.447" transform="translate(25.951 -448.483)"/><path class="bd" d="M124.994,562.347a8.447,8.447,0,1,1-8.447-8.447,8.42,8.42,0,0,1,8.447,8.447" transform="translate(-2.683 -448.483)"/><path class="bd" d="M33.894,562.347a8.447,8.447,0,1,1-8.447-8.447,8.495,8.495,0,0,1,8.447,8.447" transform="translate(-17 -448.483)"/><path class="av" d="M395.851,613.851h0A52.619,52.619,0,0,1,343.2,561.2h0a52.693,52.693,0,0,1,52.651,52.651" transform="translate(34.264 -447.336)"/><path class="av" d="M388.7,515.7h0a52.619,52.619,0,0,1,52.651,52.651A52.693,52.693,0,0,1,388.7,515.7" transform="translate(41.415 -454.486)"/><path class="ax" d="M343.2,568.351h0A52.619,52.619,0,0,1,395.851,515.7,52.693,52.693,0,0,1,343.2,568.351" transform="translate(34.264 -454.486)"/><path class="ax" d="M486.951,613.851h0A52.619,52.619,0,0,1,434.3,561.2h0a52.693,52.693,0,0,1,52.651,52.651" transform="translate(48.581 -447.336)"/><path class="bb" d="M532.551,561.2h0A52.619,52.619,0,0,1,479.9,613.851,52.545,52.545,0,0,1,532.551,561.2Z" transform="translate(55.747 -447.336)"/><path class="av" d="M479.8,515.7h0a52.619,52.619,0,0,1,52.651,52.651h0A52.693,52.693,0,0,1,479.8,515.7" transform="translate(55.731 -454.486)"/><path class="ax" d="M434.3,568.351h0A52.619,52.619,0,0,1,486.951,515.7,52.693,52.693,0,0,1,434.3,568.351" transform="translate(48.581 -454.486)"/><path class="bb" d="M388.7,606.7h0a52.619,52.619,0,0,1,52.651,52.651A52.546,52.546,0,0,1,388.7,606.7" transform="translate(41.415 -440.186)"/><path class="av" d="M343.2,659.45h0a52.619,52.619,0,0,1,52.651-52.65A52.693,52.693,0,0,1,343.2,659.45" transform="translate(34.264 -440.17)"/><path class="bb" d="M350.351,561.2h0A52.619,52.619,0,0,1,297.7,613.851,52.546,52.546,0,0,1,350.351,561.2" transform="translate(27.113 -447.336)"/><path class="av" d="M297.6,515.7h0a52.619,52.619,0,0,1,52.651,52.651A52.693,52.693,0,0,1,297.6,515.7" transform="translate(27.098 -454.486)"/><path class="ax" d="M297.6,606.7h0a52.619,52.619,0,0,1,52.651,52.651A52.546,52.546,0,0,1,297.6,606.7" transform="translate(27.098 -440.186)"/><path class="av" d="M434.3,659.45h0a52.619,52.619,0,0,1,52.651-52.65A52.693,52.693,0,0,1,434.3,659.45" transform="translate(48.581 -440.17)"/><path class="aw" d="M578.051,613.851h0A52.619,52.619,0,0,1,525.4,561.2h0a52.693,52.693,0,0,1,52.651,52.651" transform="translate(62.897 -447.336)"/><path class="av" d="M525.4,568.351h0A52.619,52.619,0,0,1,578.051,515.7,52.693,52.693,0,0,1,525.4,568.351" transform="translate(62.897 -454.486)"/><path class="bb" d="M525.4,659.45h0a52.619,52.619,0,0,1,52.651-52.65A52.693,52.693,0,0,1,525.4,659.45" transform="translate(62.897 -440.17)"/><path class="av" d="M441.451,561.2h0A52.619,52.619,0,0,1,388.8,613.851,52.546,52.546,0,0,1,441.451,561.2" transform="translate(41.43 -447.336)"/><path class="av" d="M479.8,606.7h0a52.619,52.619,0,0,1,52.651,52.651h0A52.546,52.546,0,0,1,479.8,606.7" transform="translate(55.731 -440.186)"/><path class="bd" d="M352.694,516.847a8.447,8.447,0,1,1-8.447-8.447,8.348,8.348,0,0,1,8.447,8.447" transform="translate(33.1 -455.634)"/><path class="bd" d="M352.694,607.847a8.447,8.447,0,1,1-8.447-8.447,8.495,8.495,0,0,1,8.447,8.447" transform="translate(33.1 -441.332)"/><path class="au" d="M443.794,516.847a8.447,8.447,0,1,1-8.447-8.447,8.348,8.348,0,0,1,8.447,8.447" transform="translate(47.418 -455.634)"/><path class="ax" d="M443.794,607.847a8.447,8.447,0,1,1-8.447-8.447,8.495,8.495,0,0,1,8.447,8.447" transform="translate(47.418 -441.332)"/><path class="au" d="M534.894,516.847a8.447,8.447,0,1,1-8.447-8.447,8.348,8.348,0,0,1,8.447,8.447" transform="translate(61.735 -455.634)"/><path class="au" d="M534.894,607.847a8.447,8.447,0,1,1-8.447-8.447,8.494,8.494,0,0,1,8.447,8.447" transform="translate(61.735 -441.332)"/><path class="bd" d="M580.495,562.347a8.447,8.447,0,1,1-8.447-8.447,8.495,8.495,0,0,1,8.447,8.447" transform="translate(68.901 -448.483)"/><path class="au" d="M307.194,562.347a8.447,8.447,0,1,1-8.447-8.447,8.495,8.495,0,0,1,8.447,8.447" transform="translate(25.951 -448.483)"/><path class="bd" d="M489.395,562.347a8.447,8.447,0,1,1-8.447-8.447,8.495,8.495,0,0,1,8.447,8.447" transform="translate(54.584 -448.483)"/><path class="bd" d="M398.295,562.347a8.447,8.447,0,1,1-8.447-8.447,8.495,8.495,0,0,1,8.447,8.447" transform="translate(40.267 -448.483)"/></g><g class="a" transform="translate(630.604 1710.073)"><path class="b" d="M77.051,470.1h0A52.619,52.619,0,0,1,24.4,522.751,52.693,52.693,0,0,1,77.051,470.1" transform="translate(-15.837 -43.414)"/><path class="c" d="M122.651,522.851h0A52.619,52.619,0,0,1,70,470.2a52.545,52.545,0,0,1,52.651,52.651" transform="translate(-8.67 -43.399)"/><path class="d" d="M168.151,470.1h0A52.619,52.619,0,0,1,115.5,522.751h0A52.693,52.693,0,0,1,168.151,470.1" transform="translate(-1.52 -43.414)"/><path class="e" d="M213.751,522.851h0A52.619,52.619,0,0,1,161.1,470.2a52.545,52.545,0,0,1,52.651,52.651" transform="translate(5.646 -43.399)"/><path class="c" d="M259.251,470.1h0A52.619,52.619,0,0,1,206.6,522.751,52.619,52.619,0,0,1,259.251,470.1" transform="translate(12.797 -43.414)"/><path class="c" d="M304.751,522.851h0A52.62,52.62,0,0,1,252.1,470.2a52.545,52.545,0,0,1,52.651,52.651" transform="translate(19.947 -43.399)"/><path class="f" d="M79.494,516.847a8.447,8.447,0,1,1-8.447-8.447,8.495,8.495,0,0,1,8.447,8.447" transform="translate(-9.834 -37.395)"/><path class="g" d="M170.594,516.847a8.447,8.447,0,1,1-8.447-8.447,8.495,8.495,0,0,1,8.447,8.447" transform="translate(4.484 -37.395)"/><path class="h" d="M261.695,516.847a8.447,8.447,0,1,1-8.447-8.447,8.494,8.494,0,0,1,8.447,8.447" transform="translate(18.799 -37.395)"/><path class="i" d="M216.095,471.247a8.447,8.447,0,1,1-8.447-8.447,8.495,8.495,0,0,1,8.447,8.447" transform="translate(11.633 -44.561)"/><path class="i" d="M124.994,471.247a8.447,8.447,0,1,1-8.447-8.447,8.42,8.42,0,0,1,8.447,8.447" transform="translate(-2.683 -44.561)"/><path class="i" d="M33.894,471.247a8.447,8.447,0,1,1-8.447-8.447,8.495,8.495,0,0,1,8.447,8.447" transform="translate(-17 -44.561)"/><path class="j" d="M307.194,471.247a8.447,8.447,0,1,1-8.447-8.447,8.495,8.495,0,0,1,8.447,8.447" transform="translate(25.951 -44.561)"/><path class="c" d="M395.851,522.851h0A52.619,52.619,0,0,1,343.2,470.2a52.545,52.545,0,0,1,52.651,52.651" transform="translate(34.264 -43.399)"/><path class="d" d="M441.451,470.1h0A52.619,52.619,0,0,1,388.8,522.751,52.546,52.546,0,0,1,441.451,470.1" transform="translate(41.43 -43.414)"/><path class="c" d="M486.951,522.851h0A52.619,52.619,0,0,1,434.3,470.2a52.545,52.545,0,0,1,52.651,52.651" transform="translate(48.581 -43.399)"/><path class="d" d="M532.551,470.1h0A52.619,52.619,0,0,1,479.9,522.751,52.545,52.545,0,0,1,532.551,470.1Z" transform="translate(55.747 -43.414)"/><path class="i" d="M350.351,470.1h0A52.619,52.619,0,0,1,297.7,522.751,52.546,52.546,0,0,1,350.351,470.1" transform="translate(27.113 -43.414)"/><path class="e" d="M578.051,522.851h0A52.619,52.619,0,0,1,525.4,470.2a52.545,52.545,0,0,1,52.651,52.651" transform="translate(62.897 -43.399)"/><path class="h" d="M352.694,516.847a8.447,8.447,0,1,1-8.447-8.447,8.348,8.348,0,0,1,8.447,8.447" transform="translate(33.1 -37.395)"/><path class="f" d="M443.794,516.847a8.447,8.447,0,1,1-8.447-8.447,8.348,8.348,0,0,1,8.447,8.447" transform="translate(47.418 -37.395)"/><path class="g" d="M534.894,516.847a8.447,8.447,0,1,1-8.447-8.447,8.348,8.348,0,0,1,8.447,8.447" transform="translate(61.735 -37.395)"/><path class="i" d="M580.495,471.247a8.447,8.447,0,1,1-8.447-8.447,8.495,8.495,0,0,1,8.447,8.447" transform="translate(68.901 -44.561)"/><path class="i" d="M489.395,471.247a8.447,8.447,0,1,1-8.447-8.447,8.495,8.495,0,0,1,8.447,8.447" transform="translate(54.584 -44.561)"/><path class="i" d="M398.295,471.247a8.447,8.447,0,1,1-8.447-8.447,8.495,8.495,0,0,1,8.447,8.447" transform="translate(40.267 -44.561)"/><path class="i" d="M307.194,471.247a8.447,8.447,0,1,1-8.447-8.447,8.495,8.495,0,0,1,8.447,8.447" transform="translate(25.951 -44.561)"/><path class="k" d="M24.4,515.7h0a52.619,52.619,0,0,1,52.651,52.651A52.693,52.693,0,0,1,24.4,515.7" transform="translate(-15.837 -36.247)"/><path class="l" d="M122.651,613.851h0A52.619,52.619,0,0,1,70,561.2h0a52.693,52.693,0,0,1,52.651,52.651" transform="translate(-8.67 -29.097)"/><path class="l" d="M168.151,561.2h0A52.619,52.619,0,0,1,115.5,613.851h0A52.693,52.693,0,0,1,168.151,561.2" transform="translate(-1.52 -29.097)"/><path class="m" d="M115.5,515.7h0a52.619,52.619,0,0,1,52.651,52.651A52.693,52.693,0,0,1,115.5,515.7" transform="translate(-1.52 -36.247)"/><path class="n" d="M69.9,568.351h0A52.619,52.619,0,0,1,122.551,515.7,52.545,52.545,0,0,1,69.9,568.351" transform="translate(-8.687 -36.247)"/><path class="o" d="M77.051,652.3h0A52.619,52.619,0,0,1,24.4,704.95,52.693,52.693,0,0,1,77.051,652.3" transform="translate(-15.837 -14.78)"/><path class="p" d="M24.4,606.7h0a52.619,52.619,0,0,1,52.651,52.651A52.546,52.546,0,0,1,24.4,606.7" transform="translate(-15.837 -21.947)"/><path class="q" d="M122.651,704.95h0A52.619,52.619,0,0,1,70,652.3a52.693,52.693,0,0,1,52.651,52.65" transform="translate(-8.67 -14.78)"/><path class="o" d="M168.151,652.3h0A52.619,52.619,0,0,1,115.5,704.95h0a52.693,52.693,0,0,1,52.651-52.65" transform="translate(-1.52 -14.78)"/><path class="p" d="M69.9,659.45h0a52.619,52.619,0,0,1,52.651-52.65A52.545,52.545,0,0,1,69.9,659.45" transform="translate(-8.687 -21.931)"/><path class="k" d="M213.751,613.851h0A52.619,52.619,0,0,1,161.1,561.2h0a52.693,52.693,0,0,1,52.651,52.651" transform="translate(5.646 -29.097)"/><path class="n" d="M259.251,561.2h0A52.619,52.619,0,0,1,206.6,613.851,52.619,52.619,0,0,1,259.251,561.2" transform="translate(12.797 -29.097)"/><path class="k" d="M206.6,515.7h0a52.619,52.619,0,0,1,52.651,52.651A52.619,52.619,0,0,1,206.6,515.7" transform="translate(12.797 -36.247)"/><path class="m" d="M161,568.351h0A52.619,52.619,0,0,1,213.651,515.7,52.545,52.545,0,0,1,161,568.351" transform="translate(5.631 -36.247)"/><path class="r" d="M304.751,613.851h0A52.62,52.62,0,0,1,252.1,561.2h0a52.693,52.693,0,0,1,52.651,52.651" transform="translate(19.947 -29.097)"/><path class="p" d="M213.751,704.95h0A52.619,52.619,0,0,1,161.1,652.3a52.693,52.693,0,0,1,52.651,52.65" transform="translate(5.646 -14.78)"/><path class="o" d="M259.251,652.3h0A52.619,52.619,0,0,1,206.6,704.95a52.619,52.619,0,0,1,52.651-52.65" transform="translate(12.797 -14.78)"/><path class="o" d="M206.6,606.7h0a52.619,52.619,0,0,1,52.651,52.651A52.472,52.472,0,0,1,206.6,606.7" transform="translate(12.797 -21.947)"/><path class="s" d="M161,659.45h0a52.619,52.619,0,0,1,52.651-52.65A52.545,52.545,0,0,1,161,659.45" transform="translate(5.631 -21.931)"/><path class="q" d="M304.751,704.95h0A52.619,52.619,0,0,1,252.1,652.3a52.693,52.693,0,0,1,52.651,52.65" transform="translate(19.947 -14.78)"/><path class="s" d="M252.1,659.45h0a52.619,52.619,0,0,1,52.651-52.65A52.693,52.693,0,0,1,252.1,659.45" transform="translate(19.947 -21.931)"/><path class="n" d="M77.051,561.2h0A52.619,52.619,0,0,1,24.4,613.851,52.693,52.693,0,0,1,77.051,561.2" transform="translate(-15.837 -29.097)"/><path class="q" d="M115.5,606.7h0a52.619,52.619,0,0,1,52.651,52.651A52.546,52.546,0,0,1,115.5,606.7" transform="translate(-1.52 -21.947)"/><path class="m" d="M252.1,568.351h0A52.619,52.619,0,0,1,304.751,515.7,52.693,52.693,0,0,1,252.1,568.351" transform="translate(19.947 -36.247)"/><path class="r" d="M79.494,516.847a8.447,8.447,0,1,1-8.447-8.447,8.495,8.495,0,0,1,8.447,8.447" transform="translate(-9.834 -37.395)"/><path class="t" d="M79.494,607.847a8.447,8.447,0,1,1-8.447-8.447,8.495,8.495,0,0,1,8.447,8.447" transform="translate(-9.834 -23.093)"/><path class="r" d="M170.594,516.847a8.447,8.447,0,1,1-8.447-8.447,8.495,8.495,0,0,1,8.447,8.447" transform="translate(4.484 -37.395)"/><path class="t" d="M170.594,607.847a8.447,8.447,0,1,1-8.447-8.447,8.495,8.495,0,0,1,8.447,8.447" transform="translate(4.484 -23.093)"/><path class="u" d="M261.695,516.847a8.447,8.447,0,1,1-8.447-8.447,8.494,8.494,0,0,1,8.447,8.447" transform="translate(18.799 -37.395)"/><path class="t" d="M261.695,607.847a8.447,8.447,0,1,1-8.447-8.447,8.495,8.495,0,0,1,8.447,8.447" transform="translate(18.799 -23.093)"/><path class="t" d="M216.095,653.447A8.447,8.447,0,1,1,207.647,645a8.495,8.495,0,0,1,8.447,8.447" transform="translate(11.633 -15.927)"/><path class="o" d="M124.994,653.447A8.447,8.447,0,1,1,116.547,645a8.42,8.42,0,0,1,8.447,8.447" transform="translate(-2.683 -15.927)"/><path class="o" d="M33.894,653.447A8.447,8.447,0,1,1,25.447,645a8.495,8.495,0,0,1,8.447,8.447" transform="translate(-17 -15.927)"/><path class="l" d="M216.095,562.347a8.447,8.447,0,1,1-8.447-8.447,8.495,8.495,0,0,1,8.447,8.447" transform="translate(11.633 -30.245)"/><path class="v" d="M307.194,653.447A8.447,8.447,0,1,1,298.747,645a8.494,8.494,0,0,1,8.447,8.447" transform="translate(25.951 -15.927)"/><path class="w" d="M307.194,562.347a8.447,8.447,0,1,1-8.447-8.447,8.495,8.495,0,0,1,8.447,8.447" transform="translate(25.951 -30.245)"/><path class="u" d="M124.994,562.347a8.447,8.447,0,1,1-8.447-8.447,8.42,8.42,0,0,1,8.447,8.447" transform="translate(-2.683 -30.245)"/><path class="u" d="M33.894,562.347a8.447,8.447,0,1,1-8.447-8.447,8.495,8.495,0,0,1,8.447,8.447" transform="translate(-17 -30.245)"/><path class="n" d="M395.851,613.851h0A52.619,52.619,0,0,1,343.2,561.2h0a52.693,52.693,0,0,1,52.651,52.651" transform="translate(34.264 -29.097)"/><path class="n" d="M388.7,515.7h0a52.619,52.619,0,0,1,52.651,52.651A52.693,52.693,0,0,1,388.7,515.7" transform="translate(41.415 -36.247)"/><path class="l" d="M343.2,568.351h0A52.619,52.619,0,0,1,395.851,515.7,52.693,52.693,0,0,1,343.2,568.351" transform="translate(34.264 -36.247)"/><path class="l" d="M486.951,613.851h0A52.619,52.619,0,0,1,434.3,561.2h0a52.693,52.693,0,0,1,52.651,52.651" transform="translate(48.581 -29.097)"/><path class="m" d="M532.551,561.2h0A52.619,52.619,0,0,1,479.9,613.851,52.545,52.545,0,0,1,532.551,561.2Z" transform="translate(55.747 -29.097)"/><path class="n" d="M479.8,515.7h0a52.619,52.619,0,0,1,52.651,52.651h0A52.693,52.693,0,0,1,479.8,515.7" transform="translate(55.731 -36.247)"/><path class="l" d="M434.3,568.351h0A52.619,52.619,0,0,1,486.951,515.7,52.693,52.693,0,0,1,434.3,568.351" transform="translate(48.581 -36.247)"/><path class="o" d="M441.451,652.3h0A52.619,52.619,0,0,1,388.8,704.95a52.546,52.546,0,0,1,52.651-52.65" transform="translate(41.43 -14.78)"/><path class="s" d="M388.7,606.7h0a52.619,52.619,0,0,1,52.651,52.651A52.546,52.546,0,0,1,388.7,606.7" transform="translate(41.415 -21.947)"/><path class="q" d="M343.2,659.45h0a52.619,52.619,0,0,1,52.651-52.65A52.693,52.693,0,0,1,343.2,659.45" transform="translate(34.264 -21.931)"/><path class="q" d="M486.951,704.95h0A52.619,52.619,0,0,1,434.3,652.3a52.693,52.693,0,0,1,52.651,52.65" transform="translate(48.581 -14.78)"/><path class="o" d="M532.551,652.3h0A52.619,52.619,0,0,1,479.9,704.95a52.546,52.546,0,0,1,52.651-52.65Z" transform="translate(55.747 -14.78)"/><path class="m" d="M350.351,561.2h0A52.619,52.619,0,0,1,297.7,613.851,52.546,52.546,0,0,1,350.351,561.2" transform="translate(27.113 -29.097)"/><path class="n" d="M297.6,515.7h0a52.619,52.619,0,0,1,52.651,52.651A52.693,52.693,0,0,1,297.6,515.7" transform="translate(27.098 -36.247)"/><path class="p" d="M350.351,652.3h0A52.619,52.619,0,0,1,297.7,704.95a52.546,52.546,0,0,1,52.651-52.65" transform="translate(27.113 -14.78)"/><path class="o" d="M297.6,606.7h0a52.619,52.619,0,0,1,52.651,52.651A52.546,52.546,0,0,1,297.6,606.7" transform="translate(27.098 -21.947)"/><path class="q" d="M434.3,659.45h0a52.619,52.619,0,0,1,52.651-52.65A52.693,52.693,0,0,1,434.3,659.45" transform="translate(48.581 -21.931)"/><path class="k" d="M578.051,613.851h0A52.619,52.619,0,0,1,525.4,561.2h0a52.693,52.693,0,0,1,52.651,52.651" transform="translate(62.897 -29.097)"/><path class="n" d="M525.4,568.351h0A52.619,52.619,0,0,1,578.051,515.7,52.693,52.693,0,0,1,525.4,568.351" transform="translate(62.897 -36.247)"/><path class="p" d="M578.051,704.95h0A52.619,52.619,0,0,1,525.4,652.3a52.693,52.693,0,0,1,52.651,52.65" transform="translate(62.897 -14.78)"/><path class="s" d="M525.4,659.45h0a52.619,52.619,0,0,1,52.651-52.65A52.693,52.693,0,0,1,525.4,659.45" transform="translate(62.897 -21.931)"/><path class="n" d="M441.451,561.2h0A52.619,52.619,0,0,1,388.8,613.851,52.546,52.546,0,0,1,441.451,561.2" transform="translate(41.43 -29.097)"/><path class="q" d="M395.851,704.95h0A52.619,52.619,0,0,1,343.2,652.3a52.693,52.693,0,0,1,52.651,52.65" transform="translate(34.264 -14.78)"/><path class="q" d="M479.8,606.7h0a52.619,52.619,0,0,1,52.651,52.651h0A52.546,52.546,0,0,1,479.8,606.7" transform="translate(55.731 -21.947)"/><path class="u" d="M352.694,516.847a8.447,8.447,0,1,1-8.447-8.447,8.348,8.348,0,0,1,8.447,8.447" transform="translate(33.1 -37.395)"/><path class="t" d="M352.694,607.847a8.447,8.447,0,1,1-8.447-8.447,8.495,8.495,0,0,1,8.447,8.447" transform="translate(33.1 -23.093)"/><path class="r" d="M443.794,516.847a8.447,8.447,0,1,1-8.447-8.447,8.348,8.348,0,0,1,8.447,8.447" transform="translate(47.418 -37.395)"/><path class="o" d="M443.794,607.847a8.447,8.447,0,1,1-8.447-8.447,8.495,8.495,0,0,1,8.447,8.447" transform="translate(47.418 -23.093)"/><path class="r" d="M534.894,516.847a8.447,8.447,0,1,1-8.447-8.447,8.348,8.348,0,0,1,8.447,8.447" transform="translate(61.735 -37.395)"/><path class="x" d="M534.894,607.847a8.447,8.447,0,1,1-8.447-8.447,8.494,8.494,0,0,1,8.447,8.447" transform="translate(61.735 -23.093)"/><path class="o" d="M580.495,653.447A8.447,8.447,0,1,1,572.047,645a8.495,8.495,0,0,1,8.447,8.447" transform="translate(68.901 -15.927)"/><path class="t" d="M489.395,653.447A8.447,8.447,0,1,1,480.947,645a8.494,8.494,0,0,1,8.447,8.447" transform="translate(54.584 -15.927)"/><path class="o" d="M398.295,653.447A8.447,8.447,0,1,1,389.847,645a8.495,8.495,0,0,1,8.447,8.447" transform="translate(40.267 -15.927)"/><path class="u" d="M580.495,562.347a8.447,8.447,0,1,1-8.447-8.447,8.495,8.495,0,0,1,8.447,8.447" transform="translate(68.901 -30.245)"/><path class="t" d="M307.194,653.447A8.447,8.447,0,1,1,298.747,645a8.494,8.494,0,0,1,8.447,8.447" transform="translate(25.951 -15.927)"/><path class="r" d="M307.194,562.347a8.447,8.447,0,1,1-8.447-8.447,8.495,8.495,0,0,1,8.447,8.447" transform="translate(25.951 -30.245)"/><path class="u" d="M489.395,562.347a8.447,8.447,0,1,1-8.447-8.447,8.495,8.495,0,0,1,8.447,8.447" transform="translate(54.584 -30.245)"/><path class="u" d="M398.295,562.347a8.447,8.447,0,1,1-8.447-8.447,8.495,8.495,0,0,1,8.447,8.447" transform="translate(40.267 -30.245)"/><path class="y" d="M77.051,470.1h0A52.619,52.619,0,0,1,24.4,522.751,52.693,52.693,0,0,1,77.051,470.1" transform="translate(-15.837 -252.381)"/><path class="z" d="M122.651,522.851h0A52.619,52.619,0,0,1,70,470.2a52.545,52.545,0,0,1,52.651,52.651" transform="translate(-8.67 -252.365)"/><path class="aa" d="M168.151,470.1h0A52.619,52.619,0,0,1,115.5,522.751h0A52.693,52.693,0,0,1,168.151,470.1" transform="translate(-1.52 -252.381)"/><path class="ab" d="M213.751,522.851h0A52.619,52.619,0,0,1,161.1,470.2a52.545,52.545,0,0,1,52.651,52.651" transform="translate(5.646 -252.365)"/><path class="z" d="M259.251,470.1h0A52.619,52.619,0,0,1,206.6,522.751,52.619,52.619,0,0,1,259.251,470.1" transform="translate(12.797 -252.381)"/><path class="z" d="M304.751,522.851h0A52.62,52.62,0,0,1,252.1,470.2a52.545,52.545,0,0,1,52.651,52.651" transform="translate(19.947 -252.365)"/><path class="ac" d="M79.494,516.847a8.447,8.447,0,1,1-8.447-8.447,8.495,8.495,0,0,1,8.447,8.447" transform="translate(-9.834 -246.362)"/><path class="ad" d="M170.594,516.847a8.447,8.447,0,1,1-8.447-8.447,8.495,8.495,0,0,1,8.447,8.447" transform="translate(4.484 -246.362)"/><path class="ae" d="M261.695,516.847a8.447,8.447,0,1,1-8.447-8.447,8.494,8.494,0,0,1,8.447,8.447" transform="translate(18.799 -246.362)"/><path class="af" d="M216.095,471.247a8.447,8.447,0,1,1-8.447-8.447,8.495,8.495,0,0,1,8.447,8.447" transform="translate(11.633 -253.528)"/><path class="af" d="M124.994,471.247a8.447,8.447,0,1,1-8.447-8.447,8.42,8.42,0,0,1,8.447,8.447" transform="translate(-2.683 -253.528)"/><path class="af" d="M33.894,471.247a8.447,8.447,0,1,1-8.447-8.447,8.495,8.495,0,0,1,8.447,8.447" transform="translate(-17 -253.528)"/><path class="ag" d="M307.194,471.247a8.447,8.447,0,1,1-8.447-8.447,8.495,8.495,0,0,1,8.447,8.447" transform="translate(25.951 -253.528)"/><path class="z" d="M395.851,522.851h0A52.619,52.619,0,0,1,343.2,470.2a52.545,52.545,0,0,1,52.651,52.651" transform="translate(34.264 -252.365)"/><path class="aa" d="M441.451,470.1h0A52.619,52.619,0,0,1,388.8,522.751,52.546,52.546,0,0,1,441.451,470.1" transform="translate(41.43 -252.381)"/><path class="z" d="M486.951,522.851h0A52.619,52.619,0,0,1,434.3,470.2a52.545,52.545,0,0,1,52.651,52.651" transform="translate(48.581 -252.365)"/><path class="aa" d="M532.551,470.1h0A52.619,52.619,0,0,1,479.9,522.751,52.545,52.545,0,0,1,532.551,470.1Z" transform="translate(55.747 -252.381)"/><path class="af" d="M350.351,470.1h0A52.619,52.619,0,0,1,297.7,522.751,52.546,52.546,0,0,1,350.351,470.1" transform="translate(27.113 -252.381)"/><path class="ab" d="M578.051,522.851h0A52.619,52.619,0,0,1,525.4,470.2a52.545,52.545,0,0,1,52.651,52.651" transform="translate(62.897 -252.365)"/><path class="ae" d="M352.694,516.847a8.447,8.447,0,1,1-8.447-8.447,8.348,8.348,0,0,1,8.447,8.447" transform="translate(33.1 -246.362)"/><path class="ac" d="M443.794,516.847a8.447,8.447,0,1,1-8.447-8.447,8.348,8.348,0,0,1,8.447,8.447" transform="translate(47.418 -246.362)"/><path class="ad" d="M534.894,516.847a8.447,8.447,0,1,1-8.447-8.447,8.348,8.348,0,0,1,8.447,8.447" transform="translate(61.735 -246.362)"/><path class="af" d="M580.495,471.247a8.447,8.447,0,1,1-8.447-8.447,8.495,8.495,0,0,1,8.447,8.447" transform="translate(68.901 -253.528)"/><path class="af" d="M489.395,471.247a8.447,8.447,0,1,1-8.447-8.447,8.495,8.495,0,0,1,8.447,8.447" transform="translate(54.584 -253.528)"/><path class="af" d="M398.295,471.247a8.447,8.447,0,1,1-8.447-8.447,8.495,8.495,0,0,1,8.447,8.447" transform="translate(40.267 -253.528)"/><path class="af" d="M307.194,471.247a8.447,8.447,0,1,1-8.447-8.447,8.495,8.495,0,0,1,8.447,8.447" transform="translate(25.951 -253.528)"/><path class="ah" d="M24.4,515.7h0a52.619,52.619,0,0,1,52.651,52.651A52.693,52.693,0,0,1,24.4,515.7" transform="translate(-15.837 -245.214)"/><path class="ai" d="M122.651,613.851h0A52.619,52.619,0,0,1,70,561.2h0a52.693,52.693,0,0,1,52.651,52.651" transform="translate(-8.67 -238.064)"/><path class="ai" d="M168.151,561.2h0A52.619,52.619,0,0,1,115.5,613.851h0A52.693,52.693,0,0,1,168.151,561.2" transform="translate(-1.52 -238.064)"/><path class="aj" d="M115.5,515.7h0a52.619,52.619,0,0,1,52.651,52.651A52.693,52.693,0,0,1,115.5,515.7" transform="translate(-1.52 -245.214)"/><path class="ak" d="M69.9,568.351h0A52.619,52.619,0,0,1,122.551,515.7,52.545,52.545,0,0,1,69.9,568.351" transform="translate(-8.687 -245.214)"/><path class="al" d="M24.4,606.7h0a52.619,52.619,0,0,1,52.651,52.651A52.546,52.546,0,0,1,24.4,606.7" transform="translate(-15.837 -230.914)"/><path class="al" d="M69.9,659.45h0a52.619,52.619,0,0,1,52.651-52.65A52.545,52.545,0,0,1,69.9,659.45" transform="translate(-8.687 -230.898)"/><path class="al" d="M213.751,613.851h0A52.619,52.619,0,0,1,161.1,561.2h0a52.693,52.693,0,0,1,52.651,52.651" transform="translate(5.646 -238.064)"/><path class="am" d="M259.251,561.2h0A52.619,52.619,0,0,1,206.6,613.851,52.619,52.619,0,0,1,259.251,561.2" transform="translate(12.797 -238.064)"/><path class="ah" d="M206.6,515.7h0a52.619,52.619,0,0,1,52.651,52.651A52.619,52.619,0,0,1,206.6,515.7" transform="translate(12.797 -245.214)"/><path class="aj" d="M161,568.351h0A52.619,52.619,0,0,1,213.651,515.7,52.545,52.545,0,0,1,161,568.351" transform="translate(5.631 -245.214)"/><path class="an" d="M304.751,613.851h0A52.62,52.62,0,0,1,252.1,561.2h0a52.693,52.693,0,0,1,52.651,52.651" transform="translate(19.947 -238.064)"/><path class="ai" d="M206.6,606.7h0a52.619,52.619,0,0,1,52.651,52.651A52.472,52.472,0,0,1,206.6,606.7" transform="translate(12.797 -230.914)"/><path class="ao" d="M161,659.45h0a52.619,52.619,0,0,1,52.651-52.65A52.545,52.545,0,0,1,161,659.45" transform="translate(5.631 -230.898)"/><path class="ao" d="M252.1,659.45h0a52.619,52.619,0,0,1,52.651-52.65A52.693,52.693,0,0,1,252.1,659.45" transform="translate(19.947 -230.898)"/><path class="am" d="M77.051,561.2h0A52.619,52.619,0,0,1,24.4,613.851,52.693,52.693,0,0,1,77.051,561.2" transform="translate(-15.837 -238.064)"/><path class="am" d="M115.5,606.7h0a52.619,52.619,0,0,1,52.651,52.651A52.546,52.546,0,0,1,115.5,606.7" transform="translate(-1.52 -230.914)"/><path class="aj" d="M252.1,568.351h0A52.619,52.619,0,0,1,304.751,515.7,52.693,52.693,0,0,1,252.1,568.351" transform="translate(19.947 -245.214)"/><path class="ap" d="M79.494,516.847a8.447,8.447,0,1,1-8.447-8.447,8.495,8.495,0,0,1,8.447,8.447" transform="translate(-9.834 -246.362)"/><path class="aq" d="M79.494,607.847a8.447,8.447,0,1,1-8.447-8.447,8.495,8.495,0,0,1,8.447,8.447" transform="translate(-9.834 -232.06)"/><path class="ap" d="M170.594,516.847a8.447,8.447,0,1,1-8.447-8.447,8.495,8.495,0,0,1,8.447,8.447" transform="translate(4.484 -246.362)"/><path class="aq" d="M170.594,607.847a8.447,8.447,0,1,1-8.447-8.447,8.495,8.495,0,0,1,8.447,8.447" transform="translate(4.484 -232.06)"/><path class="ar" d="M261.695,516.847a8.447,8.447,0,1,1-8.447-8.447,8.494,8.494,0,0,1,8.447,8.447" transform="translate(18.799 -246.362)"/><path class="aq" d="M261.695,607.847a8.447,8.447,0,1,1-8.447-8.447,8.495,8.495,0,0,1,8.447,8.447" transform="translate(18.799 -232.06)"/><path class="as" d="M216.095,562.347a8.447,8.447,0,1,1-8.447-8.447,8.495,8.495,0,0,1,8.447,8.447" transform="translate(11.633 -239.212)"/><path class="at" d="M307.194,562.347a8.447,8.447,0,1,1-8.447-8.447,8.495,8.495,0,0,1,8.447,8.447" transform="translate(25.951 -239.212)"/><path class="ar" d="M124.994,562.347a8.447,8.447,0,1,1-8.447-8.447,8.42,8.42,0,0,1,8.447,8.447" transform="translate(-2.683 -239.212)"/><path class="ar" d="M33.894,562.347a8.447,8.447,0,1,1-8.447-8.447,8.495,8.495,0,0,1,8.447,8.447" transform="translate(-17 -239.212)"/><path class="am" d="M395.851,613.851h0A52.619,52.619,0,0,1,343.2,561.2h0a52.693,52.693,0,0,1,52.651,52.651" transform="translate(34.264 -238.064)"/><path class="ak" d="M388.7,515.7h0a52.619,52.619,0,0,1,52.651,52.651A52.693,52.693,0,0,1,388.7,515.7" transform="translate(41.415 -245.214)"/><path class="as" d="M343.2,568.351h0A52.619,52.619,0,0,1,395.851,515.7,52.693,52.693,0,0,1,343.2,568.351" transform="translate(34.264 -245.214)"/><path class="ai" d="M486.951,613.851h0A52.619,52.619,0,0,1,434.3,561.2h0a52.693,52.693,0,0,1,52.651,52.651" transform="translate(48.581 -238.064)"/><path class="ao" d="M532.551,561.2h0A52.619,52.619,0,0,1,479.9,613.851,52.545,52.545,0,0,1,532.551,561.2Z" transform="translate(55.747 -238.064)"/><path class="ak" d="M479.8,515.7h0a52.619,52.619,0,0,1,52.651,52.651h0A52.693,52.693,0,0,1,479.8,515.7" transform="translate(55.731 -245.214)"/><path class="as" d="M434.3,568.351h0A52.619,52.619,0,0,1,486.951,515.7,52.693,52.693,0,0,1,434.3,568.351" transform="translate(48.581 -245.214)"/><path class="ao" d="M388.7,606.7h0a52.619,52.619,0,0,1,52.651,52.651A52.546,52.546,0,0,1,388.7,606.7" transform="translate(41.415 -230.914)"/><path class="am" d="M343.2,659.45h0a52.619,52.619,0,0,1,52.651-52.65A52.693,52.693,0,0,1,343.2,659.45" transform="translate(34.264 -230.898)"/><path class="ao" d="M350.351,561.2h0A52.619,52.619,0,0,1,297.7,613.851,52.546,52.546,0,0,1,350.351,561.2" transform="translate(27.113 -238.064)"/><path class="ak" d="M297.6,515.7h0a52.619,52.619,0,0,1,52.651,52.651A52.693,52.693,0,0,1,297.6,515.7" transform="translate(27.098 -245.214)"/><path class="ai" d="M297.6,606.7h0a52.619,52.619,0,0,1,52.651,52.651A52.546,52.546,0,0,1,297.6,606.7" transform="translate(27.098 -230.914)"/><path class="am" d="M434.3,659.45h0a52.619,52.619,0,0,1,52.651-52.65A52.693,52.693,0,0,1,434.3,659.45" transform="translate(48.581 -230.898)"/><path class="al" d="M578.051,613.851h0A52.619,52.619,0,0,1,525.4,561.2h0a52.693,52.693,0,0,1,52.651,52.651" transform="translate(62.897 -238.064)"/><path class="ak" d="M525.4,568.351h0A52.619,52.619,0,0,1,578.051,515.7,52.693,52.693,0,0,1,525.4,568.351" transform="translate(62.897 -245.214)"/><path class="ao" d="M525.4,659.45h0a52.619,52.619,0,0,1,52.651-52.65A52.693,52.693,0,0,1,525.4,659.45" transform="translate(62.897 -230.898)"/><path class="am" d="M441.451,561.2h0A52.619,52.619,0,0,1,388.8,613.851,52.546,52.546,0,0,1,441.451,561.2" transform="translate(41.43 -238.064)"/><path class="am" d="M479.8,606.7h0a52.619,52.619,0,0,1,52.651,52.651h0A52.546,52.546,0,0,1,479.8,606.7" transform="translate(55.731 -230.914)"/><path class="ar" d="M352.694,516.847a8.447,8.447,0,1,1-8.447-8.447,8.348,8.348,0,0,1,8.447,8.447" transform="translate(33.1 -246.362)"/><path class="aq" d="M352.694,607.847a8.447,8.447,0,1,1-8.447-8.447,8.495,8.495,0,0,1,8.447,8.447" transform="translate(33.1 -232.06)"/><path class="ap" d="M443.794,516.847a8.447,8.447,0,1,1-8.447-8.447,8.348,8.348,0,0,1,8.447,8.447" transform="translate(47.418 -246.362)"/><path class="ai" d="M443.794,607.847a8.447,8.447,0,1,1-8.447-8.447,8.495,8.495,0,0,1,8.447,8.447" transform="translate(47.418 -232.06)"/><path class="ap" d="M534.894,516.847a8.447,8.447,0,1,1-8.447-8.447,8.348,8.348,0,0,1,8.447,8.447" transform="translate(61.735 -246.362)"/><path class="an" d="M534.894,607.847a8.447,8.447,0,1,1-8.447-8.447,8.494,8.494,0,0,1,8.447,8.447" transform="translate(61.735 -232.06)"/><path class="ar" d="M580.495,562.347a8.447,8.447,0,1,1-8.447-8.447,8.495,8.495,0,0,1,8.447,8.447" transform="translate(68.901 -239.212)"/><path class="ap" d="M307.194,562.347a8.447,8.447,0,1,1-8.447-8.447,8.495,8.495,0,0,1,8.447,8.447" transform="translate(25.951 -239.212)"/><path class="ar" d="M489.395,562.347a8.447,8.447,0,1,1-8.447-8.447,8.495,8.495,0,0,1,8.447,8.447" transform="translate(54.584 -239.212)"/><path class="ar" d="M398.295,562.347a8.447,8.447,0,1,1-8.447-8.447,8.495,8.495,0,0,1,8.447,8.447" transform="translate(40.267 -239.212)"/><path class="au" d="M77.051,470.1h0A52.619,52.619,0,0,1,24.4,522.751,52.693,52.693,0,0,1,77.051,470.1" transform="translate(-15.837 -461.653)"/><path class="av" d="M122.651,522.851h0A52.619,52.619,0,0,1,70,470.2a52.545,52.545,0,0,1,52.651,52.651" transform="translate(-8.67 -461.637)"/><path class="aw" d="M168.151,470.1h0A52.619,52.619,0,0,1,115.5,522.751h0A52.693,52.693,0,0,1,168.151,470.1" transform="translate(-1.52 -461.653)"/><path class="ax" d="M213.751,522.851h0A52.619,52.619,0,0,1,161.1,470.2a52.545,52.545,0,0,1,52.651,52.651" transform="translate(5.646 -461.637)"/><path class="av" d="M259.251,470.1h0A52.619,52.619,0,0,1,206.6,522.751,52.619,52.619,0,0,1,259.251,470.1" transform="translate(12.797 -461.653)"/><path class="av" d="M304.751,522.851h0A52.62,52.62,0,0,1,252.1,470.2a52.545,52.545,0,0,1,52.651,52.651" transform="translate(19.947 -461.637)"/><path class="ay" d="M79.494,516.847a8.447,8.447,0,1,1-8.447-8.447,8.495,8.495,0,0,1,8.447,8.447" transform="translate(-9.834 -455.634)"/><path class="az" d="M170.594,516.847a8.447,8.447,0,1,1-8.447-8.447,8.495,8.495,0,0,1,8.447,8.447" transform="translate(4.484 -455.634)"/><path class="ba" d="M261.695,516.847a8.447,8.447,0,1,1-8.447-8.447,8.494,8.494,0,0,1,8.447,8.447" transform="translate(18.799 -455.634)"/><path class="bb" d="M216.095,471.247a8.447,8.447,0,1,1-8.447-8.447,8.495,8.495,0,0,1,8.447,8.447" transform="translate(11.633 -462.8)"/><path class="bb" d="M124.994,471.247a8.447,8.447,0,1,1-8.447-8.447,8.42,8.42,0,0,1,8.447,8.447" transform="translate(-2.683 -462.8)"/><path class="bb" d="M33.894,471.247a8.447,8.447,0,1,1-8.447-8.447,8.495,8.495,0,0,1,8.447,8.447" transform="translate(-17 -462.8)"/><path class="bc" d="M307.194,471.247a8.447,8.447,0,1,1-8.447-8.447,8.495,8.495,0,0,1,8.447,8.447" transform="translate(25.951 -462.8)"/><path class="av" d="M395.851,522.851h0A52.619,52.619,0,0,1,343.2,470.2a52.545,52.545,0,0,1,52.651,52.651" transform="translate(34.264 -461.637)"/><path class="aw" d="M441.451,470.1h0A52.619,52.619,0,0,1,388.8,522.751,52.546,52.546,0,0,1,441.451,470.1" transform="translate(41.43 -461.653)"/><path class="av" d="M486.951,522.851h0A52.619,52.619,0,0,1,434.3,470.2a52.545,52.545,0,0,1,52.651,52.651" transform="translate(48.581 -461.637)"/><path class="aw" d="M532.551,470.1h0A52.619,52.619,0,0,1,479.9,522.751,52.545,52.545,0,0,1,532.551,470.1Z" transform="translate(55.747 -461.653)"/><path class="bb" d="M350.351,470.1h0A52.619,52.619,0,0,1,297.7,522.751,52.546,52.546,0,0,1,350.351,470.1" transform="translate(27.113 -461.653)"/><path class="ax" d="M578.051,522.851h0A52.619,52.619,0,0,1,525.4,470.2a52.545,52.545,0,0,1,52.651,52.651" transform="translate(62.897 -461.637)"/><path class="ba" d="M352.694,516.847a8.447,8.447,0,1,1-8.447-8.447,8.348,8.348,0,0,1,8.447,8.447" transform="translate(33.1 -455.634)"/><path class="ay" d="M443.794,516.847a8.447,8.447,0,1,1-8.447-8.447,8.348,8.348,0,0,1,8.447,8.447" transform="translate(47.418 -455.634)"/><path class="az" d="M534.894,516.847a8.447,8.447,0,1,1-8.447-8.447,8.348,8.348,0,0,1,8.447,8.447" transform="translate(61.735 -455.634)"/><path class="bb" d="M580.495,471.247a8.447,8.447,0,1,1-8.447-8.447,8.495,8.495,0,0,1,8.447,8.447" transform="translate(68.901 -462.8)"/><path class="bb" d="M489.395,471.247a8.447,8.447,0,1,1-8.447-8.447,8.495,8.495,0,0,1,8.447,8.447" transform="translate(54.584 -462.8)"/><path class="bb" d="M398.295,471.247a8.447,8.447,0,1,1-8.447-8.447,8.495,8.495,0,0,1,8.447,8.447" transform="translate(40.267 -462.8)"/><path class="bb" d="M307.194,471.247a8.447,8.447,0,1,1-8.447-8.447,8.495,8.495,0,0,1,8.447,8.447" transform="translate(25.951 -462.8)"/><path class="aw" d="M24.4,515.7h0a52.619,52.619,0,0,1,52.651,52.651A52.693,52.693,0,0,1,24.4,515.7" transform="translate(-15.837 -454.486)"/><path class="ax" d="M122.651,613.851h0A52.619,52.619,0,0,1,70,561.2h0a52.693,52.693,0,0,1,52.651,52.651" transform="translate(-8.67 -447.336)"/><path class="ax" d="M168.151,561.2h0A52.619,52.619,0,0,1,115.5,613.851h0A52.693,52.693,0,0,1,168.151,561.2" transform="translate(-1.52 -447.336)"/><path class="bb" d="M115.5,515.7h0a52.619,52.619,0,0,1,52.651,52.651A52.693,52.693,0,0,1,115.5,515.7" transform="translate(-1.52 -454.486)"/><path class="av" d="M69.9,568.351h0A52.619,52.619,0,0,1,122.551,515.7,52.545,52.545,0,0,1,69.9,568.351" transform="translate(-8.687 -454.486)"/><path class="aw" d="M24.4,606.7h0a52.619,52.619,0,0,1,52.651,52.651A52.546,52.546,0,0,1,24.4,606.7" transform="translate(-15.837 -440.186)"/><path class="aw" d="M69.9,659.45h0a52.619,52.619,0,0,1,52.651-52.65A52.545,52.545,0,0,1,69.9,659.45" transform="translate(-8.687 -440.17)"/><path class="aw" d="M213.751,613.851h0A52.619,52.619,0,0,1,161.1,561.2h0a52.693,52.693,0,0,1,52.651,52.651" transform="translate(5.646 -447.336)"/><path class="av" d="M259.251,561.2h0A52.619,52.619,0,0,1,206.6,613.851,52.619,52.619,0,0,1,259.251,561.2" transform="translate(12.797 -447.336)"/><path class="aw" d="M206.6,515.7h0a52.619,52.619,0,0,1,52.651,52.651A52.619,52.619,0,0,1,206.6,515.7" transform="translate(12.797 -454.486)"/><path class="bb" d="M161,568.351h0A52.619,52.619,0,0,1,213.651,515.7,52.545,52.545,0,0,1,161,568.351" transform="translate(5.631 -454.486)"/><path class="au" d="M304.751,613.851h0A52.62,52.62,0,0,1,252.1,561.2h0a52.693,52.693,0,0,1,52.651,52.651" transform="translate(19.947 -447.336)"/><path class="ax" d="M206.6,606.7h0a52.619,52.619,0,0,1,52.651,52.651A52.472,52.472,0,0,1,206.6,606.7" transform="translate(12.797 -440.186)"/><path class="bb" d="M161,659.45h0a52.619,52.619,0,0,1,52.651-52.65A52.545,52.545,0,0,1,161,659.45" transform="translate(5.631 -440.17)"/><path class="bb" d="M252.1,659.45h0a52.619,52.619,0,0,1,52.651-52.65A52.693,52.693,0,0,1,252.1,659.45" transform="translate(19.947 -440.17)"/><path class="av" d="M77.051,561.2h0A52.619,52.619,0,0,1,24.4,613.851,52.693,52.693,0,0,1,77.051,561.2" transform="translate(-15.837 -447.336)"/><path class="av" d="M115.5,606.7h0a52.619,52.619,0,0,1,52.651,52.651A52.546,52.546,0,0,1,115.5,606.7" transform="translate(-1.52 -440.186)"/><path class="bb" d="M252.1,568.351h0A52.619,52.619,0,0,1,304.751,515.7,52.693,52.693,0,0,1,252.1,568.351" transform="translate(19.947 -454.486)"/><path class="au" d="M79.494,516.847a8.447,8.447,0,1,1-8.447-8.447,8.495,8.495,0,0,1,8.447,8.447" transform="translate(-9.834 -455.634)"/><path class="bd" d="M79.494,607.847a8.447,8.447,0,1,1-8.447-8.447,8.495,8.495,0,0,1,8.447,8.447" transform="translate(-9.834 -441.332)"/><path class="au" d="M170.594,516.847a8.447,8.447,0,1,1-8.447-8.447,8.495,8.495,0,0,1,8.447,8.447" transform="translate(4.484 -455.634)"/><path class="bd" d="M170.594,607.847a8.447,8.447,0,1,1-8.447-8.447,8.495,8.495,0,0,1,8.447,8.447" transform="translate(4.484 -441.332)"/><path class="bd" d="M261.695,516.847a8.447,8.447,0,1,1-8.447-8.447,8.494,8.494,0,0,1,8.447,8.447" transform="translate(18.799 -455.634)"/><path class="bd" d="M261.695,607.847a8.447,8.447,0,1,1-8.447-8.447,8.495,8.495,0,0,1,8.447,8.447" transform="translate(18.799 -441.332)"/><path class="ax" d="M216.095,562.347a8.447,8.447,0,1,1-8.447-8.447,8.495,8.495,0,0,1,8.447,8.447" transform="translate(11.633 -448.483)"/><path class="be" d="M307.194,562.347a8.447,8.447,0,1,1-8.447-8.447,8.495,8.495,0,0,1,8.447,8.447" transform="translate(25.951 -448.483)"/><path class="bd" d="M124.994,562.347a8.447,8.447,0,1,1-8.447-8.447,8.42,8.42,0,0,1,8.447,8.447" transform="translate(-2.683 -448.483)"/><path class="bd" d="M33.894,562.347a8.447,8.447,0,1,1-8.447-8.447,8.495,8.495,0,0,1,8.447,8.447" transform="translate(-17 -448.483)"/><path class="av" d="M395.851,613.851h0A52.619,52.619,0,0,1,343.2,561.2h0a52.693,52.693,0,0,1,52.651,52.651" transform="translate(34.264 -447.336)"/><path class="av" d="M388.7,515.7h0a52.619,52.619,0,0,1,52.651,52.651A52.693,52.693,0,0,1,388.7,515.7" transform="translate(41.415 -454.486)"/><path class="ax" d="M343.2,568.351h0A52.619,52.619,0,0,1,395.851,515.7,52.693,52.693,0,0,1,343.2,568.351" transform="translate(34.264 -454.486)"/><path class="ax" d="M486.951,613.851h0A52.619,52.619,0,0,1,434.3,561.2h0a52.693,52.693,0,0,1,52.651,52.651" transform="translate(48.581 -447.336)"/><path class="bb" d="M532.551,561.2h0A52.619,52.619,0,0,1,479.9,613.851,52.545,52.545,0,0,1,532.551,561.2Z" transform="translate(55.747 -447.336)"/><path class="av" d="M479.8,515.7h0a52.619,52.619,0,0,1,52.651,52.651h0A52.693,52.693,0,0,1,479.8,515.7" transform="translate(55.731 -454.486)"/><path class="ax" d="M434.3,568.351h0A52.619,52.619,0,0,1,486.951,515.7,52.693,52.693,0,0,1,434.3,568.351" transform="translate(48.581 -454.486)"/><path class="bb" d="M388.7,606.7h0a52.619,52.619,0,0,1,52.651,52.651A52.546,52.546,0,0,1,388.7,606.7" transform="translate(41.415 -440.186)"/><path class="av" d="M343.2,659.45h0a52.619,52.619,0,0,1,52.651-52.65A52.693,52.693,0,0,1,343.2,659.45" transform="translate(34.264 -440.17)"/><path class="bb" d="M350.351,561.2h0A52.619,52.619,0,0,1,297.7,613.851,52.546,52.546,0,0,1,350.351,561.2" transform="translate(27.113 -447.336)"/><path class="av" d="M297.6,515.7h0a52.619,52.619,0,0,1,52.651,52.651A52.693,52.693,0,0,1,297.6,515.7" transform="translate(27.098 -454.486)"/><path class="ax" d="M297.6,606.7h0a52.619,52.619,0,0,1,52.651,52.651A52.546,52.546,0,0,1,297.6,606.7" transform="translate(27.098 -440.186)"/><path class="av" d="M434.3,659.45h0a52.619,52.619,0,0,1,52.651-52.65A52.693,52.693,0,0,1,434.3,659.45" transform="translate(48.581 -440.17)"/><path class="aw" d="M578.051,613.851h0A52.619,52.619,0,0,1,525.4,561.2h0a52.693,52.693,0,0,1,52.651,52.651" transform="translate(62.897 -447.336)"/><path class="av" d="M525.4,568.351h0A52.619,52.619,0,0,1,578.051,515.7,52.693,52.693,0,0,1,525.4,568.351" transform="translate(62.897 -454.486)"/><path class="bb" d="M525.4,659.45h0a52.619,52.619,0,0,1,52.651-52.65A52.693,52.693,0,0,1,525.4,659.45" transform="translate(62.897 -440.17)"/><path class="av" d="M441.451,561.2h0A52.619,52.619,0,0,1,388.8,613.851,52.546,52.546,0,0,1,441.451,561.2" transform="translate(41.43 -447.336)"/><path class="av" d="M479.8,606.7h0a52.619,52.619,0,0,1,52.651,52.651h0A52.546,52.546,0,0,1,479.8,606.7" transform="translate(55.731 -440.186)"/><path class="bd" d="M352.694,516.847a8.447,8.447,0,1,1-8.447-8.447,8.348,8.348,0,0,1,8.447,8.447" transform="translate(33.1 -455.634)"/><path class="bd" d="M352.694,607.847a8.447,8.447,0,1,1-8.447-8.447,8.495,8.495,0,0,1,8.447,8.447" transform="translate(33.1 -441.332)"/><path class="au" d="M443.794,516.847a8.447,8.447,0,1,1-8.447-8.447,8.348,8.348,0,0,1,8.447,8.447" transform="translate(47.418 -455.634)"/><path class="ax" d="M443.794,607.847a8.447,8.447,0,1,1-8.447-8.447,8.495,8.495,0,0,1,8.447,8.447" transform="translate(47.418 -441.332)"/><path class="au" d="M534.894,516.847a8.447,8.447,0,1,1-8.447-8.447,8.348,8.348,0,0,1,8.447,8.447" transform="translate(61.735 -455.634)"/><path class="au" d="M534.894,607.847a8.447,8.447,0,1,1-8.447-8.447,8.494,8.494,0,0,1,8.447,8.447" transform="translate(61.735 -441.332)"/><path class="bd" d="M580.495,562.347a8.447,8.447,0,1,1-8.447-8.447,8.495,8.495,0,0,1,8.447,8.447" transform="translate(68.901 -448.483)"/><path class="au" d="M307.194,562.347a8.447,8.447,0,1,1-8.447-8.447,8.495,8.495,0,0,1,8.447,8.447" transform="translate(25.951 -448.483)"/><path class="bd" d="M489.395,562.347a8.447,8.447,0,1,1-8.447-8.447,8.495,8.495,0,0,1,8.447,8.447" transform="translate(54.584 -448.483)"/><path class="bd" d="M398.295,562.347a8.447,8.447,0,1,1-8.447-8.447,8.495,8.495,0,0,1,8.447,8.447" transform="translate(40.267 -448.483)"/></g></g></svg>