<?xml version="1.0" encoding="UTF-8" standalone="no"?>
<svg
   width="76"
   height="79.790001"
   viewBox="0 0 75.999998 79.79"
   version="1.1"
   id="svg856"
   sodipodi:docname="Group 3030.svg"
   inkscape:version="1.1.2 (b8e25be833, 2022-02-05)"
   xmlns:inkscape="http://www.inkscape.org/namespaces/inkscape"
   xmlns:sodipodi="http://sodipodi.sourceforge.net/DTD/sodipodi-0.dtd"
   xmlns="http://www.w3.org/2000/svg"
   xmlns:svg="http://www.w3.org/2000/svg">
  <sodipodi:namedview
     id="namedview858"
     pagecolor="#ffffff"
     bordercolor="#666666"
     borderopacity="1.0"
     inkscape:pageshadow="2"
     inkscape:pageopacity="0.0"
     inkscape:pagecheckerboard="0"
     showgrid="false"
     inkscape:zoom="9.8729455"
     inkscape:cx="41.173123"
     inkscape:cy="30.740573"
     inkscape:window-width="1920"
     inkscape:window-height="1111"
     inkscape:window-x="-9"
     inkscape:window-y="-9"
     inkscape:window-maximized="1"
     inkscape:current-layer="svg856" />
  <defs
     id="defs844">
    <style
       id="style842">.a{fill:#1dbfdc;}.b{fill:#fff;font-size:14px;font-family:Raleway-Bold, Raleway;font-weight:700;}</style>
  </defs>
  <g
     transform="translate(-1091.7201,-708.92222)"
     id="g854">
    <path
       class="a"
       d="M 65.45,77.781 1.77,10.755 A 6.446,6.446 0 0 1 0.472,3.89 5.9,5.9 0 0 1 6,0 H 62.913 Q 63.689,0 64.427,0.018 64.645,0 64.868,0 h 5.755 a 5,5 0 0 1 5,5 v 3.244 q 0.043,0.612 0.043,1.284 v 63.8 a 6.212,6.212 0 0 1 -3.695,5.81 5.69,5.69 0 0 1 -6.522,-1.361 z"
       transform="translate(1092,709)"
       id="path846" />
    <text
       class="b"
       transform="rotate(45,-282.13897,1718.5192)"
       id="text852"><tspan
         x="13.986"
         y="13"
         id="tspan848">Best</tspan><tspan
         x="9.2819996"
         y="29"
         id="tspan850">Seller</tspan></text>
  </g>
</svg>
